<?xml version="1.0" encoding="utf-8" standalone="no"?>
<!DOCTYPE svg PUBLIC "-//W3C//DTD SVG 1.1//EN"
  "http://www.w3.org/Graphics/SVG/1.1/DTD/svg11.dtd">
<svg xmlns:xlink="http://www.w3.org/1999/xlink" width="715.680625pt" height="282.96pt" viewBox="0 0 715.680625 282.96" xmlns="http://www.w3.org/2000/svg" version="1.1">
 <metadata>
  <rdf:RDF xmlns:dc="http://purl.org/dc/elements/1.1/" xmlns:cc="http://creativecommons.org/ns#" xmlns:rdf="http://www.w3.org/1999/02/22-rdf-syntax-ns#">
   <cc:Work>
    <dc:type rdf:resource="http://purl.org/dc/dcmitype/StillImage"/>
    <dc:date>2026-09-13T04:57:51.884931</dc:date>
    <dc:format>image/svg+xml</dc:format>
    <dc:creator>
     <cc:Agent>
      <dc:title>Matplotlib v3.11.1, https://matplotlib.org/</dc:title>
     </cc:Agent>
    </dc:creator>
   </cc:Work>
  </rdf:RDF>
 </metadata>
 <defs>
  <style type="text/css">*{stroke-linejoin: round; stroke-linecap: butt}</style>
 </defs>
 <g id="figure_1">
  <g id="patch_1">
   <path d="M 0 282.96 
L 715.680625 282.96 
L 715.680625 0 
L 0 0 
z
" style="fill: #ffffff"/>
  </g>
  <g id="axes_1">
   <g id="patch_2">
    <path d="M 52.988125 245.76 
L 708.480625 245.76 
L 708.480625 26.88 
L 52.988125 26.88 
z
" style="fill: #ffffff"/>
   </g>
   <g id="FillBetweenPolyCollection_1">
    <defs>
     <path id="m0fed2e3b0e" d="M 82.783239 -245.136 
L 82.783239 -59.088 
L 84.572735 -59.088 
L 86.362231 -59.088 
L 88.151728 -59.088 
L 89.941224 -59.088 
L 91.73072 -59.088 
L 93.520217 -59.088 
L 95.309713 -59.088 
L 97.099209 -59.088 
L 98.888705 -59.088 
L 100.678202 -59.088 
L 102.467698 -59.088 
L 104.257194 -59.088 
L 106.046691 -59.088 
L 107.836187 -59.088 
L 109.625683 -59.088 
L 111.41518 -59.088 
L 113.204676 -59.088 
L 114.994172 -59.088 
L 116.783669 -59.088 
L 118.573165 -59.088 
L 120.362661 -59.088 
L 122.152158 -59.088 
L 123.941654 -59.088 
L 125.73115 -59.088 
L 127.520646 -59.088 
L 129.310143 -59.088 
L 131.099639 -59.088 
L 132.889135 -59.088 
L 134.678632 -59.088 
L 136.468128 -59.088 
L 138.257624 -59.088 
L 140.047121 -59.088 
L 141.836617 -59.088 
L 143.626113 -59.088 
L 145.41561 -59.088 
L 147.205106 -59.088 
L 148.994602 -59.088 
L 150.784099 -59.088 
L 152.573595 -59.088 
L 154.363091 -59.088 
L 156.152588 -59.088 
L 157.942084 -59.088 
L 159.73158 -59.088 
L 161.521076 -59.088 
L 163.310573 -59.088 
L 165.100069 -59.088 
L 166.889565 -59.088 
L 168.679062 -59.088 
L 170.468558 -59.088 
L 172.258054 -59.088 
L 174.047551 -59.088 
L 175.837047 -59.088 
L 177.626543 -59.088 
L 179.41604 -59.088 
L 181.205536 -59.088 
L 182.995032 -59.088 
L 184.784529 -59.088 
L 186.574025 -59.088 
L 188.363521 -59.088 
L 190.153018 -59.088 
L 191.942514 -59.088 
L 193.73201 -59.088 
L 195.521506 -59.088 
L 197.311003 -59.088 
L 199.100499 -59.088 
L 200.889995 -59.088 
L 202.679492 -59.088 
L 204.468988 -59.088 
L 206.258484 -59.088 
L 208.047981 -59.088 
L 209.837477 -59.088 
L 211.626973 -59.088 
L 213.41647 -59.088 
L 215.205966 -59.088 
L 216.995462 -59.088 
L 218.784959 -59.088 
L 220.574455 -59.088 
L 222.363951 -59.088 
L 224.153447 -59.088 
L 225.942944 -59.088 
L 227.73244 -59.088 
L 229.521936 -59.088 
L 231.311433 -59.088 
L 233.100929 -59.088 
L 234.890425 -59.088 
L 236.679922 -59.088 
L 238.469418 -59.088 
L 240.258914 -59.088 
L 242.048411 -59.088 
L 243.837907 -59.088 
L 245.627403 -59.088 
L 247.4169 -59.088 
L 249.206396 -59.088 
L 250.995892 -59.088 
L 252.785389 -59.088 
L 254.574885 -59.088 
L 256.364381 -59.088 
L 258.153877 -59.088 
L 259.943374 -59.088 
L 261.73287 -59.088 
L 263.522366 -59.088 
L 265.311863 -59.088 
L 267.101359 -59.088 
L 268.890855 -59.088 
L 270.680352 -59.088 
L 272.469848 -59.088 
L 274.259344 -59.088 
L 276.048841 -59.088 
L 277.838337 -59.088 
L 279.627833 -59.088 
L 281.41733 -59.088 
L 283.206826 -59.088 
L 284.996322 -59.088 
L 286.785818 -59.088 
L 288.575315 -59.088 
L 290.364811 -59.088 
L 292.154307 -59.088 
L 293.943804 -59.088 
L 295.7333 -59.088 
L 297.522796 -59.088 
L 299.312293 -59.088 
L 301.101789 -59.088 
L 302.891285 -59.088 
L 304.680782 -59.088 
L 306.470278 -59.088 
L 308.259774 -59.088 
L 310.049271 -59.088 
L 311.838767 -59.088 
L 313.628263 -59.088 
L 315.41776 -59.088 
L 317.207256 -59.088 
L 318.996752 -59.088 
L 320.786248 -59.088 
L 322.575745 -59.088 
L 324.365241 -59.088 
L 326.154737 -59.088 
L 327.944234 -59.088 
L 329.73373 -59.088 
L 331.523226 -59.088 
L 333.312723 -59.088 
L 335.102219 -59.088 
L 336.891715 -59.088 
L 338.681212 -59.088 
L 340.470708 -59.088 
L 342.260204 -59.088 
L 344.049701 -59.088 
L 345.839197 -59.088 
L 347.628693 -59.088 
L 349.418189 -59.088 
L 351.207686 -59.088 
L 352.997182 -59.088 
L 354.786678 -59.088 
L 356.576175 -59.088 
L 358.365671 -59.088 
L 360.155167 -59.088 
L 361.944664 -59.088 
L 363.73416 -59.088 
L 365.523656 -59.088 
L 367.313153 -59.088 
L 369.102649 -59.088 
L 370.892145 -59.088 
L 372.681642 -59.088 
L 374.471138 -59.088 
L 376.260634 -59.088 
L 378.050131 -59.088 
L 379.839627 -59.088 
L 381.629123 -59.088 
L 383.418619 -59.088 
L 385.208116 -59.088 
L 386.997612 -59.088 
L 388.787108 -59.088 
L 390.576605 -59.088 
L 392.366101 -59.088 
L 394.155597 -59.088 
L 395.945094 -59.088 
L 397.73459 -59.088 
L 399.524086 -59.088 
L 401.313583 -59.088 
L 403.103079 -59.088 
L 404.892575 -59.088 
L 406.682072 -59.088 
L 408.471568 -59.088 
L 410.261064 -59.088 
L 412.050561 -59.088 
L 413.840057 -59.088 
L 415.629553 -59.088 
L 417.419049 -59.088 
L 419.208546 -59.088 
L 420.998042 -59.088 
L 422.787538 -59.088 
L 424.577035 -59.088 
L 426.366531 -59.088 
L 428.156027 -59.088 
L 429.945524 -59.088 
L 431.73502 -59.088 
L 433.524516 -59.088 
L 435.314013 -59.088 
L 437.103509 -59.088 
L 438.893005 -59.088 
L 440.682502 -59.088 
L 442.471998 -59.088 
L 444.261494 -59.088 
L 446.05099 -59.088 
L 447.840487 -59.088 
L 449.629983 -59.088 
L 451.419479 -59.088 
L 453.208976 -59.088 
L 454.998472 -59.088 
L 456.787968 -59.088 
L 458.577465 -59.088 
L 460.366961 -59.088 
L 462.156457 -59.088 
L 463.945954 -59.088 
L 465.73545 -59.088 
L 467.524946 -59.088 
L 469.314443 -59.088 
L 471.103939 -59.088 
L 472.893435 -59.088 
L 474.682932 -59.088 
L 476.472428 -59.088 
L 478.261924 -59.088 
L 480.05142 -59.088 
L 481.840917 -59.088 
L 483.630413 -59.088 
L 485.419909 -59.088 
L 487.209406 -59.088 
L 488.998902 -59.088 
L 490.788398 -59.088 
L 492.577895 -59.088 
L 494.367391 -59.088 
L 496.156887 -59.088 
L 497.946384 -59.088 
L 499.73588 -59.088 
L 501.525376 -59.088 
L 503.314873 -59.088 
L 505.104369 -59.088 
L 506.893865 -59.088 
L 508.683361 -59.088 
L 510.472858 -59.088 
L 512.262354 -59.088 
L 514.05185 -59.088 
L 515.841347 -59.088 
L 517.630843 -59.088 
L 519.420339 -59.088 
L 521.209836 -59.088 
L 522.999332 -59.088 
L 524.788828 -59.088 
L 526.578325 -59.088 
L 528.367821 -59.088 
L 530.157317 -59.088 
L 531.946814 -59.088 
L 533.73631 -59.088 
L 535.525806 -59.088 
L 537.315303 -59.088 
L 539.104799 -59.088 
L 540.894295 -59.088 
L 542.683791 -59.088 
L 544.473288 -59.088 
L 546.262784 -59.088 
L 548.05228 -59.088 
L 549.841777 -59.088 
L 551.631273 -59.088 
L 553.420769 -59.088 
L 555.210266 -59.088 
L 556.999762 -59.088 
L 558.789258 -59.088 
L 560.578755 -59.088 
L 562.368251 -59.088 
L 564.157747 -59.088 
L 565.947244 -59.088 
L 567.73674 -59.088 
L 569.526236 -59.088 
L 571.315732 -59.088 
L 573.105229 -59.088 
L 574.894725 -59.088 
L 576.684221 -59.088 
L 578.473718 -59.088 
L 580.263214 -59.088 
L 582.05271 -59.088 
L 583.842207 -59.088 
L 585.631703 -59.088 
L 587.421199 -59.088 
L 589.210696 -59.088 
L 591.000192 -59.088 
L 592.789688 -59.088 
L 594.579185 -59.088 
L 596.368681 -59.088 
L 598.158177 -59.088 
L 599.947674 -59.088 
L 601.73717 -59.088 
L 603.526666 -59.088 
L 605.316162 -59.088 
L 607.105659 -59.088 
L 608.895155 -59.088 
L 610.684651 -59.088 
L 612.474148 -59.088 
L 614.263644 -59.088 
L 616.05314 -59.088 
L 617.842637 -59.088 
L 619.632133 -59.088 
L 621.421629 -59.088 
L 623.211126 -59.088 
L 625.000622 -59.088 
L 626.790118 -59.088 
L 628.579615 -59.088 
L 630.369111 -59.088 
L 632.158607 -59.088 
L 633.948104 -59.088 
L 635.7376 -59.088 
L 637.527096 -59.088 
L 639.316592 -59.088 
L 641.106089 -59.088 
L 642.895585 -59.088 
L 644.685081 -59.088 
L 646.474578 -59.088 
L 648.264074 -59.088 
L 650.05357 -59.088 
L 651.843067 -59.088 
L 653.632563 -59.088 
L 655.422059 -59.088 
L 657.211556 -59.088 
L 659.001052 -59.088 
L 660.790548 -59.088 
L 662.580045 -59.088 
L 664.369541 -59.088 
L 666.159037 -59.088 
L 667.948533 -59.088 
L 669.73803 -59.088 
L 671.527526 -59.088 
L 673.317022 -59.088 
L 675.106519 -59.088 
L 676.896015 -59.088 
L 678.685511 -59.088 
L 678.685511 -245.136 
L 678.685511 -245.136 
L 676.896015 -245.136 
L 675.106519 -245.136 
L 673.317022 -245.136 
L 671.527526 -245.136 
L 669.73803 -245.136 
L 667.948533 -245.136 
L 666.159037 -245.136 
L 664.369541 -245.136 
L 662.580045 -245.136 
L 660.790548 -245.136 
L 659.001052 -245.136 
L 657.211556 -245.136 
L 655.422059 -245.136 
L 653.632563 -245.136 
L 651.843067 -245.136 
L 650.05357 -245.136 
L 648.264074 -245.136 
L 646.474578 -245.136 
L 644.685081 -245.136 
L 642.895585 -245.136 
L 641.106089 -245.136 
L 639.316592 -245.136 
L 637.527096 -245.136 
L 635.7376 -245.136 
L 633.948104 -245.136 
L 632.158607 -245.136 
L 630.369111 -245.136 
L 628.579615 -245.136 
L 626.790118 -245.136 
L 625.000622 -245.136 
L 623.211126 -245.136 
L 621.421629 -245.136 
L 619.632133 -245.136 
L 617.842637 -245.136 
L 616.05314 -245.136 
L 614.263644 -245.136 
L 612.474148 -245.136 
L 610.684651 -245.136 
L 608.895155 -245.136 
L 607.105659 -245.136 
L 605.316162 -245.136 
L 603.526666 -245.136 
L 601.73717 -245.136 
L 599.947674 -245.136 
L 598.158177 -245.136 
L 596.368681 -245.136 
L 594.579185 -245.136 
L 592.789688 -245.136 
L 591.000192 -245.136 
L 589.210696 -245.136 
L 587.421199 -245.136 
L 585.631703 -245.136 
L 583.842207 -245.136 
L 582.05271 -245.136 
L 580.263214 -245.136 
L 578.473718 -245.136 
L 576.684221 -245.136 
L 574.894725 -245.136 
L 573.105229 -245.136 
L 571.315732 -245.136 
L 569.526236 -245.136 
L 567.73674 -245.136 
L 565.947244 -245.136 
L 564.157747 -245.136 
L 562.368251 -245.136 
L 560.578755 -245.136 
L 558.789258 -245.136 
L 556.999762 -245.136 
L 555.210266 -245.136 
L 553.420769 -245.136 
L 551.631273 -245.136 
L 549.841777 -245.136 
L 548.05228 -245.136 
L 546.262784 -245.136 
L 544.473288 -245.136 
L 542.683791 -245.136 
L 540.894295 -245.136 
L 539.104799 -245.136 
L 537.315303 -245.136 
L 535.525806 -245.136 
L 533.73631 -245.136 
L 531.946814 -245.136 
L 530.157317 -245.136 
L 528.367821 -245.136 
L 526.578325 -245.136 
L 524.788828 -245.136 
L 522.999332 -245.136 
L 521.209836 -245.136 
L 519.420339 -245.136 
L 517.630843 -245.136 
L 515.841347 -245.136 
L 514.05185 -245.136 
L 512.262354 -245.136 
L 510.472858 -245.136 
L 508.683361 -245.136 
L 506.893865 -245.136 
L 505.104369 -245.136 
L 503.314873 -245.136 
L 501.525376 -245.136 
L 499.73588 -245.136 
L 497.946384 -245.136 
L 496.156887 -245.136 
L 494.367391 -245.136 
L 492.577895 -245.136 
L 490.788398 -245.136 
L 488.998902 -245.136 
L 487.209406 -245.136 
L 485.419909 -245.136 
L 483.630413 -245.136 
L 481.840917 -245.136 
L 480.05142 -245.136 
L 478.261924 -245.136 
L 476.472428 -245.136 
L 474.682932 -245.136 
L 472.893435 -245.136 
L 471.103939 -245.136 
L 469.314443 -245.136 
L 467.524946 -245.136 
L 465.73545 -245.136 
L 463.945954 -245.136 
L 462.156457 -245.136 
L 460.366961 -245.136 
L 458.577465 -245.136 
L 456.787968 -245.136 
L 454.998472 -245.136 
L 453.208976 -245.136 
L 451.419479 -245.136 
L 449.629983 -245.136 
L 447.840487 -245.136 
L 446.05099 -245.136 
L 444.261494 -245.136 
L 442.471998 -245.136 
L 440.682502 -245.136 
L 438.893005 -245.136 
L 437.103509 -245.136 
L 435.314013 -245.136 
L 433.524516 -245.136 
L 431.73502 -245.136 
L 429.945524 -245.136 
L 428.156027 -245.136 
L 426.366531 -245.136 
L 424.577035 -245.136 
L 422.787538 -245.136 
L 420.998042 -245.136 
L 419.208546 -245.136 
L 417.419049 -245.136 
L 415.629553 -245.136 
L 413.840057 -245.136 
L 412.050561 -245.136 
L 410.261064 -245.136 
L 408.471568 -245.136 
L 406.682072 -245.136 
L 404.892575 -245.136 
L 403.103079 -245.136 
L 401.313583 -245.136 
L 399.524086 -245.136 
L 397.73459 -245.136 
L 395.945094 -245.136 
L 394.155597 -245.136 
L 392.366101 -245.136 
L 390.576605 -245.136 
L 388.787108 -245.136 
L 386.997612 -245.136 
L 385.208116 -245.136 
L 383.418619 -245.136 
L 381.629123 -245.136 
L 379.839627 -245.136 
L 378.050131 -245.136 
L 376.260634 -245.136 
L 374.471138 -245.136 
L 372.681642 -245.136 
L 370.892145 -245.136 
L 369.102649 -245.136 
L 367.313153 -245.136 
L 365.523656 -245.136 
L 363.73416 -245.136 
L 361.944664 -245.136 
L 360.155167 -245.136 
L 358.365671 -245.136 
L 356.576175 -245.136 
L 354.786678 -245.136 
L 352.997182 -245.136 
L 351.207686 -245.136 
L 349.418189 -245.136 
L 347.628693 -245.136 
L 345.839197 -245.136 
L 344.049701 -245.136 
L 342.260204 -245.136 
L 340.470708 -245.136 
L 338.681212 -245.136 
L 336.891715 -245.136 
L 335.102219 -245.136 
L 333.312723 -245.136 
L 331.523226 -245.136 
L 329.73373 -245.136 
L 327.944234 -245.136 
L 326.154737 -245.136 
L 324.365241 -245.136 
L 322.575745 -245.136 
L 320.786248 -245.136 
L 318.996752 -245.136 
L 317.207256 -245.136 
L 315.41776 -245.136 
L 313.628263 -245.136 
L 311.838767 -245.136 
L 310.049271 -245.136 
L 308.259774 -245.136 
L 306.470278 -245.136 
L 304.680782 -245.136 
L 302.891285 -245.136 
L 301.101789 -245.136 
L 299.312293 -245.136 
L 297.522796 -245.136 
L 295.7333 -245.136 
L 293.943804 -245.136 
L 292.154307 -245.136 
L 290.364811 -245.136 
L 288.575315 -245.136 
L 286.785818 -245.136 
L 284.996322 -245.136 
L 283.206826 -245.136 
L 281.41733 -245.136 
L 279.627833 -245.136 
L 277.838337 -245.136 
L 276.048841 -245.136 
L 274.259344 -245.136 
L 272.469848 -245.136 
L 270.680352 -245.136 
L 268.890855 -245.136 
L 267.101359 -245.136 
L 265.311863 -245.136 
L 263.522366 -245.136 
L 261.73287 -245.136 
L 259.943374 -245.136 
L 258.153877 -245.136 
L 256.364381 -245.136 
L 254.574885 -245.136 
L 252.785389 -245.136 
L 250.995892 -245.136 
L 249.206396 -245.136 
L 247.4169 -245.136 
L 245.627403 -245.136 
L 243.837907 -245.136 
L 242.048411 -245.136 
L 240.258914 -245.136 
L 238.469418 -245.136 
L 236.679922 -245.136 
L 234.890425 -245.136 
L 233.100929 -245.136 
L 231.311433 -245.136 
L 229.521936 -245.136 
L 227.73244 -245.136 
L 225.942944 -245.136 
L 224.153447 -245.136 
L 222.363951 -245.136 
L 220.574455 -245.136 
L 218.784959 -245.136 
L 216.995462 -245.136 
L 215.205966 -245.136 
L 213.41647 -245.136 
L 211.626973 -245.136 
L 209.837477 -245.136 
L 208.047981 -245.136 
L 206.258484 -245.136 
L 204.468988 -245.136 
L 202.679492 -245.136 
L 200.889995 -245.136 
L 199.100499 -245.136 
L 197.311003 -245.136 
L 195.521506 -245.136 
L 193.73201 -245.136 
L 191.942514 -245.136 
L 190.153018 -245.136 
L 188.363521 -245.136 
L 186.574025 -245.136 
L 184.784529 -245.136 
L 182.995032 -245.136 
L 181.205536 -245.136 
L 179.41604 -245.136 
L 177.626543 -245.136 
L 175.837047 -245.136 
L 174.047551 -245.136 
L 172.258054 -245.136 
L 170.468558 -245.136 
L 168.679062 -245.136 
L 166.889565 -245.136 
L 165.100069 -245.136 
L 163.310573 -245.136 
L 161.521076 -245.136 
L 159.73158 -245.136 
L 157.942084 -245.136 
L 156.152588 -245.136 
L 154.363091 -245.136 
L 152.573595 -245.136 
L 150.784099 -245.136 
L 148.994602 -245.136 
L 147.205106 -245.136 
L 145.41561 -245.136 
L 143.626113 -245.136 
L 141.836617 -245.136 
L 140.047121 -245.136 
L 138.257624 -245.136 
L 136.468128 -245.136 
L 134.678632 -245.136 
L 132.889135 -245.136 
L 131.099639 -245.136 
L 129.310143 -245.136 
L 127.520646 -245.136 
L 125.73115 -245.136 
L 123.941654 -245.136 
L 122.152158 -245.136 
L 120.362661 -245.136 
L 118.573165 -245.136 
L 116.783669 -245.136 
L 114.994172 -245.136 
L 113.204676 -245.136 
L 111.41518 -245.136 
L 109.625683 -245.136 
L 107.836187 -245.136 
L 106.046691 -245.136 
L 104.257194 -245.136 
L 102.467698 -245.136 
L 100.678202 -245.136 
L 98.888705 -245.136 
L 97.099209 -245.136 
L 95.309713 -245.136 
L 93.520217 -245.136 
L 91.73072 -245.136 
L 89.941224 -245.136 
L 88.151728 -245.136 
L 86.362231 -245.136 
L 84.572735 -245.136 
L 82.783239 -245.136 
z
" style="stroke: #008000; stroke-opacity: 0.1"/>
    </defs>
    <g clip-path="url(#pe549ebb36c)">
     <use xlink:href="#m0fed2e3b0e" x="0" y="282.96" style="fill: #008000; fill-opacity: 0.1; stroke: #008000; stroke-opacity: 0.1"/>
    </g>
   </g>
   <g id="matplotlib.axis_1">
    <g id="xtick_1">
     <g id="line2d_1">
      <path d="M 132.889135 245.76 
L 132.889135 26.88 
" clip-path="url(#pe549ebb36c)" style="fill: none; stroke: #b0b0b0; stroke-opacity: 0.3; stroke-width: 0.8; stroke-linecap: square"/>
     </g>
     <g id="line2d_2">
      <defs>
       <path id="m0632515403" d="M 0 0 
L 0 3.5 
" style="stroke: #000000; stroke-width: 0.8"/>
      </defs>
      <g>
       <use xlink:href="#m0632515403" x="132.889135" y="245.76" style="stroke: #000000; stroke-width: 0.8"/>
      </g>
     </g>
     <g id="text_1">
      <text style="font-size: 9px; font-family: 'Noto Serif SC', 'Times New Roman', 'Times', 'DejaVu Serif', serif; text-anchor: middle" x="132.889135" y="260.68" transform="rotate(-0 132.889135 260.68)">2025-03</text>
     </g>
    </g>
    <g id="xtick_2">
     <g id="line2d_3">
      <path d="M 242.048411 245.76 
L 242.048411 26.88 
" clip-path="url(#pe549ebb36c)" style="fill: none; stroke: #b0b0b0; stroke-opacity: 0.3; stroke-width: 0.8; stroke-linecap: square"/>
     </g>
     <g id="line2d_4">
      <g>
       <use xlink:href="#m0632515403" x="242.048411" y="245.76" style="stroke: #000000; stroke-width: 0.8"/>
      </g>
     </g>
     <g id="text_2">
      <text style="font-size: 9px; font-family: 'Noto Serif SC', 'Times New Roman', 'Times', 'DejaVu Serif', serif; text-anchor: middle" x="242.048411" y="260.68" transform="rotate(-0 242.048411 260.68)">2025-05</text>
     </g>
    </g>
    <g id="xtick_3">
     <g id="line2d_5">
      <path d="M 351.207686 245.76 
L 351.207686 26.88 
" clip-path="url(#pe549ebb36c)" style="fill: none; stroke: #b0b0b0; stroke-opacity: 0.3; stroke-width: 0.8; stroke-linecap: square"/>
     </g>
     <g id="line2d_6">
      <g>
       <use xlink:href="#m0632515403" x="351.207686" y="245.76" style="stroke: #000000; stroke-width: 0.8"/>
      </g>
     </g>
     <g id="text_3">
      <text style="font-size: 9px; font-family: 'Noto Serif SC', 'Times New Roman', 'Times', 'DejaVu Serif', serif; text-anchor: middle" x="351.207686" y="260.68" transform="rotate(-0 351.207686 260.68)">2025-07</text>
     </g>
    </g>
    <g id="xtick_4">
     <g id="line2d_7">
      <path d="M 462.156457 245.76 
L 462.156457 26.88 
" clip-path="url(#pe549ebb36c)" style="fill: none; stroke: #b0b0b0; stroke-opacity: 0.3; stroke-width: 0.8; stroke-linecap: square"/>
     </g>
     <g id="line2d_8">
      <g>
       <use xlink:href="#m0632515403" x="462.156457" y="245.76" style="stroke: #000000; stroke-width: 0.8"/>
      </g>
     </g>
     <g id="text_4">
      <text style="font-size: 9px; font-family: 'Noto Serif SC', 'Times New Roman', 'Times', 'DejaVu Serif', serif; text-anchor: middle" x="462.156457" y="260.68" transform="rotate(-0 462.156457 260.68)">2025-09</text>
     </g>
    </g>
    <g id="xtick_5">
     <g id="line2d_9">
      <path d="M 571.315732 245.76 
L 571.315732 26.88 
" clip-path="url(#pe549ebb36c)" style="fill: none; stroke: #b0b0b0; stroke-opacity: 0.3; stroke-width: 0.8; stroke-linecap: square"/>
     </g>
     <g id="line2d_10">
      <g>
       <use xlink:href="#m0632515403" x="571.315732" y="245.76" style="stroke: #000000; stroke-width: 0.8"/>
      </g>
     </g>
     <g id="text_5">
      <text style="font-size: 9px; font-family: 'Noto Serif SC', 'Times New Roman', 'Times', 'DejaVu Serif', serif; text-anchor: middle" x="571.315732" y="260.68" transform="rotate(-0 571.315732 260.68)">2025-11</text>
     </g>
    </g>
    <g id="xtick_6">
     <g id="line2d_11">
      <path d="M 680.475008 245.76 
L 680.475008 26.88 
" clip-path="url(#pe549ebb36c)" style="fill: none; stroke: #b0b0b0; stroke-opacity: 0.3; stroke-width: 0.8; stroke-linecap: square"/>
     </g>
     <g id="line2d_12">
      <g>
       <use xlink:href="#m0632515403" x="680.475008" y="245.76" style="stroke: #000000; stroke-width: 0.8"/>
      </g>
     </g>
     <g id="text_6">
      <text style="font-size: 9px; font-family: 'Noto Serif SC', 'Times New Roman', 'Times', 'DejaVu Serif', serif; text-anchor: middle" x="680.475008" y="260.68" transform="rotate(-0 680.475008 260.68)">2026-01</text>
     </g>
    </g>
    <g id="text_7">
     <text style="font-size: 10px; font-family: 'Noto Serif SC', 'Times New Roman', 'Times', 'DejaVu Serif', serif; text-anchor: middle" x="380.734375" y="274.56" transform="rotate(-0 380.734375 274.56)">日期</text>
    </g>
   </g>
   <g id="matplotlib.axis_2">
    <g id="ytick_1">
     <g id="line2d_13">
      <path d="M 52.988125 245.76 
L 708.480625 245.76 
" clip-path="url(#pe549ebb36c)" style="fill: none; stroke: #b0b0b0; stroke-opacity: 0.3; stroke-width: 0.8; stroke-linecap: square"/>
     </g>
     <g id="line2d_14">
      <defs>
       <path id="m189fee9af8" d="M 0 0 
L -3.5 0 
" style="stroke: #000000; stroke-width: 0.8"/>
      </defs>
      <g>
       <use xlink:href="#m189fee9af8" x="52.988125" y="245.76" style="stroke: #000000; stroke-width: 0.8"/>
      </g>
     </g>
     <g id="text_8">
      <text style="font-size: 9px; font-family: 'Noto Serif SC', 'Times New Roman', 'Times', 'DejaVu Serif', serif; text-anchor: end" x="45.988125" y="249.72" transform="rotate(-0 45.988125 249.72)">0</text>
     </g>
    </g>
    <g id="ytick_2">
     <g id="line2d_15">
      <path d="M 52.988125 209.28 
L 708.480625 209.28 
" clip-path="url(#pe549ebb36c)" style="fill: none; stroke: #b0b0b0; stroke-opacity: 0.3; stroke-width: 0.8; stroke-linecap: square"/>
     </g>
     <g id="line2d_16">
      <g>
       <use xlink:href="#m189fee9af8" x="52.988125" y="209.28" style="stroke: #000000; stroke-width: 0.8"/>
      </g>
     </g>
     <g id="text_9">
      <text style="font-size: 9px; font-family: 'Noto Serif SC', 'Times New Roman', 'Times', 'DejaVu Serif', serif; text-anchor: end" x="45.988125" y="213.24" transform="rotate(-0 45.988125 213.24)">2000</text>
     </g>
    </g>
    <g id="ytick_3">
     <g id="line2d_17">
      <path d="M 52.988125 172.8 
L 708.480625 172.8 
" clip-path="url(#pe549ebb36c)" style="fill: none; stroke: #b0b0b0; stroke-opacity: 0.3; stroke-width: 0.8; stroke-linecap: square"/>
     </g>
     <g id="line2d_18">
      <g>
       <use xlink:href="#m189fee9af8" x="52.988125" y="172.8" style="stroke: #000000; stroke-width: 0.8"/>
      </g>
     </g>
     <g id="text_10">
      <text style="font-size: 9px; font-family: 'Noto Serif SC', 'Times New Roman', 'Times', 'DejaVu Serif', serif; text-anchor: end" x="45.988125" y="176.76" transform="rotate(-0 45.988125 176.76)">4000</text>
     </g>
    </g>
    <g id="ytick_4">
     <g id="line2d_19">
      <path d="M 52.988125 136.32 
L 708.480625 136.32 
" clip-path="url(#pe549ebb36c)" style="fill: none; stroke: #b0b0b0; stroke-opacity: 0.3; stroke-width: 0.8; stroke-linecap: square"/>
     </g>
     <g id="line2d_20">
      <g>
       <use xlink:href="#m189fee9af8" x="52.988125" y="136.32" style="stroke: #000000; stroke-width: 0.8"/>
      </g>
     </g>
     <g id="text_11">
      <text style="font-size: 9px; font-family: 'Noto Serif SC', 'Times New Roman', 'Times', 'DejaVu Serif', serif; text-anchor: end" x="45.988125" y="140.28" transform="rotate(-0 45.988125 140.28)">6000</text>
     </g>
    </g>
    <g id="ytick_5">
     <g id="line2d_21">
      <path d="M 52.988125 99.84 
L 708.480625 99.84 
" clip-path="url(#pe549ebb36c)" style="fill: none; stroke: #b0b0b0; stroke-opacity: 0.3; stroke-width: 0.8; stroke-linecap: square"/>
     </g>
     <g id="line2d_22">
      <g>
       <use xlink:href="#m189fee9af8" x="52.988125" y="99.84" style="stroke: #000000; stroke-width: 0.8"/>
      </g>
     </g>
     <g id="text_12">
      <text style="font-size: 9px; font-family: 'Noto Serif SC', 'Times New Roman', 'Times', 'DejaVu Serif', serif; text-anchor: end" x="45.988125" y="103.8" transform="rotate(-0 45.988125 103.8)">8000</text>
     </g>
    </g>
    <g id="ytick_6">
     <g id="line2d_23">
      <path d="M 52.988125 63.36 
L 708.480625 63.36 
" clip-path="url(#pe549ebb36c)" style="fill: none; stroke: #b0b0b0; stroke-opacity: 0.3; stroke-width: 0.8; stroke-linecap: square"/>
     </g>
     <g id="line2d_24">
      <g>
       <use xlink:href="#m189fee9af8" x="52.988125" y="63.36" style="stroke: #000000; stroke-width: 0.8"/>
      </g>
     </g>
     <g id="text_13">
      <text style="font-size: 9px; font-family: 'Noto Serif SC', 'Times New Roman', 'Times', 'DejaVu Serif', serif; text-anchor: end" x="45.988125" y="67.32" transform="rotate(-0 45.988125 67.32)">10000</text>
     </g>
    </g>
    <g id="ytick_7">
     <g id="line2d_25">
      <path d="M 52.988125 26.88 
L 708.480625 26.88 
" clip-path="url(#pe549ebb36c)" style="fill: none; stroke: #b0b0b0; stroke-opacity: 0.3; stroke-width: 0.8; stroke-linecap: square"/>
     </g>
     <g id="line2d_26">
      <g>
       <use xlink:href="#m189fee9af8" x="52.988125" y="26.88" style="stroke: #000000; stroke-width: 0.8"/>
      </g>
     </g>
     <g id="text_14">
      <text style="font-size: 9px; font-family: 'Noto Serif SC', 'Times New Roman', 'Times', 'DejaVu Serif', serif; text-anchor: end" x="45.988125" y="30.84" transform="rotate(-0 45.988125 30.84)">12000</text>
     </g>
    </g>
    <g id="text_15">
     <text style="font-size: 10px; font-family: 'Noto Serif SC', 'Times New Roman', 'Times', 'DejaVu Serif', serif; text-anchor: middle" x="16" y="136.32" transform="rotate(-90 16 136.32)">日末SOC (kWh)</text>
    </g>
   </g>
   <g id="line2d_27">
    <path d="M 82.783239 134.014667 
L 84.572735 172.787333 
L 86.362231 172.774667 
L 88.151728 139.220667 
L 89.941224 172.711333 
L 91.73072 133.394 
L 93.520217 135.205333 
L 95.309713 172.749333 
L 97.099209 172.8 
L 98.888705 146.491333 
L 100.678202 149.455333 
L 102.467698 144.566 
L 104.257194 167.138 
L 106.046691 170.912667 
L 107.836187 172.749333 
L 109.625683 169.608 
L 111.41518 132.231981 
L 113.204676 172.765314 
L 114.994172 172.752647 
L 116.783669 155.221981 
L 118.573165 172.068647 
L 120.362661 172.752647 
L 122.152158 166.406647 
L 123.941654 137.893981 
L 125.73115 132.885002 
L 127.520646 172.772335 
L 129.310143 170.492335 
L 131.099639 171.923668 
L 132.889135 143.892335 
L 134.678632 172.759668 
L 136.468128 168.098335 
L 138.257624 172.785002 
L 140.047121 135.139668 
L 141.836617 170.492335 
L 143.626113 136.786335 
L 145.41561 172.721668 
L 147.205106 172.709002 
L 148.994602 172.810335 
L 150.784099 171.733668 
L 152.573595 136.241668 
L 154.363091 170.593668 
L 156.152588 164.741668 
L 157.942084 172.772335 
L 161.521076 172.797668 
L 163.310573 133.419619 
L 165.100069 172.711619 
L 166.889565 166.137619 
L 168.679062 163.730953 
L 170.468558 166.542953 
L 172.258054 134.076769 
L 174.047551 172.735435 
L 175.837047 136.306102 
L 177.626543 143.272769 
L 179.41604 163.856102 
L 181.205536 168.745435 
L 182.995032 172.760769 
L 184.784529 127.021435 
L 186.574025 131.809435 
L 188.363521 156.585695 
L 190.153018 172.457028 
L 191.942514 122.388296 
L 193.73201 171.724963 
L 195.521506 172.706201 
L 197.311003 160.875534 
L 199.100499 158.950201 
L 200.889995 127.33296 
L 202.679492 165.966293 
L 204.468988 128.447627 
L 206.258484 172.1592 
L 208.047981 164.647866 
L 209.837477 151.2972 
L 211.626973 122.946397 
L 213.41647 155.65173 
L 215.205966 165.519063 
L 216.995462 155.95573 
L 218.784959 171.622786 
L 220.574455 172.711618 
L 222.363951 169.392951 
L 224.153447 143.134951 
L 225.942944 155.624284 
L 227.73244 172.382284 
L 229.521936 160.766951 
L 231.311433 171.059524 
L 233.100929 172.800329 
L 234.890425 172.698996 
L 236.679922 170.773663 
L 238.469418 172.698996 
L 240.258914 172.774996 
L 242.048411 171.419663 
L 243.837907 172.166996 
L 245.627403 172.711663 
L 247.4169 136.282329 
L 249.206396 135.078996 
L 250.995892 172.344329 
L 252.785389 172.736996 
L 254.574885 153.458329 
L 256.364381 170.86391 
L 258.153877 172.777944 
L 261.73287 172.727277 
L 263.522366 137.615277 
L 265.311863 139.426611 
L 267.101359 136.285277 
L 268.890855 168.215301 
L 270.680352 172.810454 
L 272.469848 132.935788 
L 274.259344 165.058454 
L 276.048841 172.747121 
L 277.838337 172.721788 
L 279.627833 167.186454 
L 281.41733 171.52149 
L 283.206826 162.582805 
L 284.996322 171.652138 
L 286.785818 172.728805 
L 288.575315 172.779472 
L 290.364811 172.716138 
L 292.154307 171.842138 
L 293.943804 171.359042 
L 295.7333 134.068376 
L 297.522796 172.739709 
L 299.312293 132.944707 
L 301.101789 157.340707 
L 302.891285 122.908757 
L 304.680782 171.054757 
L 306.470278 171.15609 
L 308.259774 166.013423 
L 310.049271 124.034673 
L 311.838767 132.86334 
L 313.628263 172.788673 
L 315.41776 171.24334 
L 317.207256 170.420007 
L 318.996752 171.395012 
L 320.786248 172.807019 
L 322.575745 153.807019 
L 324.365241 172.731019 
L 326.154737 172.705685 
L 327.944234 172.528352 
L 329.73373 171.540352 
L 331.523226 172.163681 
L 333.312723 162.761339 
L 335.102219 170.310672 
L 336.891715 172.768006 
L 338.681212 172.780672 
L 340.470708 176.327339 
L 342.260204 170.640006 
L 344.049701 136.744006 
L 345.839197 172.783915 
L 347.628693 206.272175 
L 349.418189 172.718175 
L 351.207686 209.176352 
L 352.997182 164.931685 
L 354.786678 170.125019 
L 356.576175 172.704298 
L 358.365671 172.767632 
L 360.155167 132.500298 
L 361.944664 152.614965 
L 363.73416 171.133632 
L 365.523656 133.982298 
L 367.313153 169.980965 
L 369.102649 172.083735 
L 370.892145 172.766537 
L 372.681642 112.884315 
L 374.471138 172.708982 
L 376.260634 135.088982 
L 378.050131 144.018982 
L 379.839627 170.466982 
L 381.629123 171.545476 
L 383.418619 149.480142 
L 385.208116 117.294877 
L 386.997612 167.454877 
L 388.787108 172.76221 
L 390.576605 123.934851 
L 392.366101 122.655385 
L 394.155597 172.296052 
L 395.945094 172.802967 
L 397.73459 209.092504 
L 399.524086 172.701171 
L 401.313583 208.554801 
L 403.103079 174.367468 
L 404.892575 203.576996 
L 406.682072 156.127014 
L 408.471568 131.756348 
L 410.261064 172.758348 
L 412.050561 146.614348 
L 413.840057 144.271014 
L 415.629553 134.150348 
L 417.419049 132.77073 
L 419.208546 150.466063 
L 420.998042 170.897397 
L 422.787538 172.734063 
L 424.577035 172.721397 
L 426.366531 155.900063 
L 428.156027 171.961397 
L 429.945524 136.216063 
L 431.73502 138.876063 
L 433.524516 139.932743 
L 435.314013 169.24341 
L 437.103509 132.95341 
L 438.893005 136.284743 
L 440.682502 143.416076 
L 442.471998 132.95341 
L 444.261494 167.330743 
L 446.05099 171.56141 
L 447.840487 140.59141 
L 449.629983 122.917508 
L 451.419479 128.490841 
L 453.208976 142.639508 
L 454.998472 168.720175 
L 456.787968 143.880841 
L 458.577465 154.774175 
L 460.366961 122.879508 
L 462.156457 110.164508 
L 463.945954 136.967174 
L 465.73545 135.105174 
L 467.524946 130.671841 
L 469.314443 115.075197 
L 471.103939 140.243864 
L 472.893435 160.371197 
L 474.682932 134.923864 
L 476.472428 156.786531 
L 478.261924 135.126531 
L 480.05142 129.515197 
L 481.840917 130.693197 
L 483.630413 172.733864 
L 485.419909 162.511864 
L 487.209406 140.598531 
L 488.998902 117.317235 
L 490.788398 134.277901 
L 492.577895 132.897235 
L 494.367391 134.151235 
L 496.156887 172.726112 
L 497.946384 172.713445 
L 499.73588 137.512779 
L 501.525376 167.710112 
L 503.314873 172.700779 
L 505.104369 170.471445 
L 506.893865 154.815445 
L 508.683361 172.787707 
L 510.472858 172.724374 
L 512.262354 150.84904 
L 514.05185 159.601707 
L 515.841347 126.288374 
L 517.630843 124.022154 
L 519.420339 150.291738 
L 521.209836 172.726756 
L 522.999332 171.624756 
L 524.788828 172.802756 
L 526.578325 208.914104 
L 530.157317 136.308771 
L 531.946814 168.418771 
L 533.73631 172.750771 
L 539.104799 172.750771 
L 540.894295 137.461438 
L 542.683791 169.685438 
L 544.473288 170.848186 
L 546.262784 172.773519 
L 548.05228 172.710186 
L 549.841777 139.409519 
L 551.631273 172.773519 
L 553.420769 172.798853 
L 555.210266 131.827203 
L 556.999762 171.634322 
L 558.789258 172.786989 
L 560.578755 156.636989 
L 562.368251 172.748989 
L 564.157747 172.837656 
L 565.947244 172.748989 
L 567.73674 170.494322 
L 569.526236 168.594322 
L 571.315732 172.736322 
L 573.105229 172.786989 
L 574.894725 153.343656 
L 576.684221 172.710989 
L 578.473718 146.212322 
L 580.263214 206.658689 
L 582.05271 171.959025 
L 583.842207 172.731691 
L 587.421199 172.795025 
L 589.210696 147.715025 
L 591.000192 172.757025 
L 592.789688 203.976283 
L 594.579185 171.587617 
L 596.368681 172.803617 
L 598.158177 208.357595 
L 599.947674 172.764262 
L 601.73717 172.726262 
L 603.526666 208.515363 
L 605.316162 204.967127 
L 607.105659 170.86846 
L 608.895155 172.793794 
L 612.474148 172.755794 
L 614.263644 129.282275 
L 616.05314 172.703609 
L 617.842637 171.829609 
L 619.632133 172.386942 
L 621.421629 159.555609 
L 623.211126 208.777555 
L 625.000622 172.728222 
L 626.790118 158.832889 
L 628.579615 171.486889 
L 630.369111 165.115555 
L 632.158607 171.562889 
L 633.948104 172.753555 
L 635.7376 124.138675 
L 637.527096 149.355091 
L 639.316592 172.699757 
L 641.106089 172.750424 
L 642.895585 162.997091 
L 644.685081 197.676648 
L 646.474578 172.735981 
L 651.843067 172.710648 
L 653.632563 170.088648 
L 655.422059 172.431981 
L 657.211556 172.761314 
L 659.001052 172.761314 
L 660.790548 143.083314 
L 662.580045 172.748648 
L 664.369541 164.173314 
L 666.159037 172.773981 
L 667.948533 170.443314 
L 671.527526 172.723314 
L 673.317022 172.685314 
L 675.106519 172.773981 
L 676.896015 172.710648 
L 678.685511 172.761314 
L 678.685511 172.761314 
" clip-path="url(#pe549ebb36c)" style="fill: none; stroke: #0173b2; stroke-opacity: 0.8; stroke-width: 1.5; stroke-linecap: square"/>
   </g>
   <g id="line2d_28">
    <path d="M 52.988125 136.32 
L 708.480625 136.32 
" clip-path="url(#pe549ebb36c)" style="fill: none; stroke-dasharray: 3.7,1.6; stroke-dashoffset: 0; stroke: #ff0000; stroke-opacity: 0.7"/>
   </g>
   <g id="patch_3">
    <path d="M 52.988125 245.76 
L 52.988125 26.88 
" style="fill: none; stroke: #000000; stroke-width: 0.8; stroke-linejoin: miter; stroke-linecap: square"/>
   </g>
   <g id="patch_4">
    <path d="M 52.988125 245.76 
L 708.480625 245.76 
" style="fill: none; stroke: #000000; stroke-width: 0.8; stroke-linejoin: miter; stroke-linecap: square"/>
   </g>
   <g id="text_16">
    <text style="font-size: 11px; font-family: 'Noto Serif SC', 'Times New Roman', 'Times', 'DejaVu Serif', serif; text-anchor: middle" x="380.734375" y="16.88" transform="rotate(-0 380.734375 16.88)">全年日末SOC轨迹</text>
   </g>
   <g id="legend_1">
    <g id="patch_5">
     <path d="M 587.374375 151.62 
L 702.180625 151.62 
Q 703.980625 151.62 703.980625 149.82 
L 703.980625 122.82 
Q 703.980625 121.02 702.180625 121.02 
L 587.374375 121.02 
Q 585.574375 121.02 585.574375 122.82 
L 585.574375 149.82 
Q 585.574375 151.62 587.374375 151.62 
z
" style="fill: #ffffff; opacity: 0.8; stroke: #cccccc; stroke-linejoin: miter"/>
    </g>
    <g id="patch_6">
     <path d="M 589.174375 132.54 
L 607.174375 132.54 
L 607.174375 126.24 
L 589.174375 126.24 
z
" style="fill: #008000; fill-opacity: 0.1; stroke: #008000; stroke-opacity: 0.1; stroke-linejoin: miter"/>
    </g>
    <g id="text_17">
     <text style="font-size: 9px; font-family: 'Noto Serif SC', 'Times New Roman', 'Times', 'DejaVu Serif', serif; text-anchor: start" x="614.374375" y="132.54" transform="rotate(-0 614.374375 132.54)">SOC安全范围</text>
    </g>
    <g id="line2d_29">
     <path d="M 589.174375 142.89 
L 598.174375 142.89 
L 607.174375 142.89 
" style="fill: none; stroke-dasharray: 3.7,1.6; stroke-dashoffset: 0; stroke: #ff0000; stroke-opacity: 0.7"/>
    </g>
    <g id="text_18">
     <text style="font-size: 9px; font-family: 'Noto Serif SC', 'Times New Roman', 'Times', 'DejaVu Serif', serif; text-anchor: start" x="614.374375" y="146.04" transform="rotate(-0 614.374375 146.04)">初始SOC (6000 kWh)</text>
    </g>
   </g>
  </g>
 </g>
 <defs>
  <clipPath id="pe549ebb36c">
   <rect x="52.988125" y="26.88" width="655.4925" height="218.88"/>
  </clipPath>
 </defs>
</svg>
