<?xml version="1.0" encoding="utf-8" standalone="no"?>
<!DOCTYPE svg PUBLIC "-//W3C//DTD SVG 1.1//EN"
  "http://www.w3.org/Graphics/SVG/1.1/DTD/svg11.dtd">
<svg xmlns:xlink="http://www.w3.org/1999/xlink" width="707.76pt" height="239.667338pt" viewBox="0 0 707.76 239.667338" xmlns="http://www.w3.org/2000/svg" version="1.1">
 <metadata>
  <rdf:RDF xmlns:dc="http://purl.org/dc/elements/1.1/" xmlns:cc="http://creativecommons.org/ns#" xmlns:rdf="http://www.w3.org/1999/02/22-rdf-syntax-ns#">
   <cc:Work>
    <dc:type rdf:resource="http://purl.org/dc/dcmitype/StillImage"/>
    <dc:date>2026-09-13T02:24:13.710593</dc:date>
    <dc:format>image/svg+xml</dc:format>
    <dc:creator>
     <cc:Agent>
      <dc:title>Matplotlib v3.7.5, https://matplotlib.org/</dc:title>
     </cc:Agent>
    </dc:creator>
   </cc:Work>
  </rdf:RDF>
 </metadata>
 <defs>
  <style type="text/css">*{stroke-linejoin: round; stroke-linecap: butt}</style>
 </defs>
 <g id="figure_1">
  <g id="patch_1">
   <path d="M 0 239.667338 
L 707.76 239.667338 
L 707.76 0 
L 0 0 
z
" style="fill: #ffffff"/>
  </g>
  <g id="axes_1">
   <g id="patch_2">
    <path d="M 52.1 225.254838 
L 704.16 225.254838 
L 704.16 20.101088 
L 52.1 20.101088 
z
" style="fill: #ffffff"/>
   </g>
   <g id="patch_3">
    <path d="M 52.1 215.929667 
L 413.679239 215.929667 
L 413.679239 162.642979 
L 52.1 162.642979 
z
" clip-path="url(#p883ca60c89)" style="fill: #7b9eb6"/>
   </g>
   <g id="patch_4">
    <path d="M 413.679239 215.929667 
L 448.787184 215.929667 
L 448.787184 162.642979 
L 413.679239 162.642979 
z
" clip-path="url(#p883ca60c89)" style="fill: #b85450"/>
   </g>
   <g id="patch_5">
    <path d="M 52.1 82.712946 
L 627.369188 82.712946 
L 627.369188 29.426258 
L 52.1 29.426258 
z
" clip-path="url(#p883ca60c89)" style="fill: #7b9eb6"/>
   </g>
   <g id="patch_6">
    <path d="M 627.369188 82.712946 
L 634.296429 82.712946 
L 634.296429 29.426258 
L 627.369188 29.426258 
z
" clip-path="url(#p883ca60c89)" style="fill: #b85450"/>
   </g>
   <g id="matplotlib.axis_1">
    <g id="xtick_1">
     <g id="line2d_1">
      <path d="M 52.1 225.254838 
L 52.1 20.101088 
" clip-path="url(#p883ca60c89)" style="fill: none; stroke-dasharray: 0.8,1.32; stroke-dashoffset: 0; stroke: #b0b0b0; stroke-opacity: 0.15; stroke-width: 0.8"/>
     </g>
     <g id="line2d_2">
      <defs>
       <path id="md91bc29010" d="M 0 0 
L 0 -3.5 
" style="stroke: #000000; stroke-width: 0.8"/>
      </defs>
      <g>
       <use xlink:href="#md91bc29010" x="52.1" y="225.254838" style="stroke: #000000; stroke-width: 0.8"/>
      </g>
     </g>
     <g id="text_1">
      <!-- 0 -->
      <g transform="translate(49.85 234.942338) scale(0.09 -0.09)">
       <defs>
        <path id="SimHei-30" d="M 225 2537 
Q 250 3200 412 3587 
Q 575 3975 875 4225 
Q 1175 4475 1612 4475 
Q 2050 4475 2375 4112 
Q 2700 3750 2800 3200 
Q 2900 2650 2862 1937 
Q 2825 1225 2612 775 
Q 2400 325 1975 150 
Q 1550 -25 1125 187 
Q 700 400 525 750 
Q 350 1100 275 1487 
Q 200 1875 225 2537 
z
M 750 2687 
Q 675 2000 800 1462 
Q 925 925 1212 700 
Q 1500 475 1800 612 
Q 2100 750 2237 1162 
Q 2375 1575 2375 2062 
Q 2375 2550 2337 2950 
Q 2300 3350 2112 3675 
Q 1925 4000 1612 4012 
Q 1300 4025 1062 3700 
Q 825 3375 750 2687 
z
" transform="scale(0.015625)"/>
       </defs>
       <use xlink:href="#SimHei-30"/>
      </g>
     </g>
    </g>
    <g id="xtick_2">
     <g id="line2d_3">
      <path d="M 192.56674 225.254838 
L 192.56674 20.101088 
" clip-path="url(#p883ca60c89)" style="fill: none; stroke-dasharray: 0.8,1.32; stroke-dashoffset: 0; stroke: #b0b0b0; stroke-opacity: 0.15; stroke-width: 0.8"/>
     </g>
     <g id="line2d_4">
      <g>
       <use xlink:href="#md91bc29010" x="192.56674" y="225.254838" style="stroke: #000000; stroke-width: 0.8"/>
      </g>
     </g>
     <g id="text_2">
      <!-- 500 -->
      <g transform="translate(185.81674 234.942338) scale(0.09 -0.09)">
       <defs>
        <path id="SimHei-35" d="M 550 1325 
Q 725 650 1150 575 
Q 1575 500 1837 662 
Q 2100 825 2212 1087 
Q 2325 1350 2312 1675 
Q 2300 2000 2137 2225 
Q 1975 2450 1725 2525 
Q 1475 2600 1162 2525 
Q 850 2450 650 2175 
L 225 2225 
Q 275 2375 700 4375 
L 2675 4375 
L 2675 3925 
L 1075 3925 
Q 950 3250 825 2850 
Q 1200 3025 1525 3012 
Q 1850 3000 2150 2862 
Q 2450 2725 2587 2487 
Q 2725 2250 2787 2012 
Q 2850 1775 2837 1500 
Q 2825 1225 2725 937 
Q 2625 650 2425 462 
Q 2225 275 1937 162 
Q 1650 50 1275 75 
Q 900 100 562 350 
Q 225 600 100 1200 
L 550 1325 
z
" transform="scale(0.015625)"/>
       </defs>
       <use xlink:href="#SimHei-35"/>
       <use xlink:href="#SimHei-30" x="50"/>
       <use xlink:href="#SimHei-30" x="100"/>
      </g>
     </g>
    </g>
    <g id="xtick_3">
     <g id="line2d_5">
      <path d="M 333.03348 225.254838 
L 333.03348 20.101088 
" clip-path="url(#p883ca60c89)" style="fill: none; stroke-dasharray: 0.8,1.32; stroke-dashoffset: 0; stroke: #b0b0b0; stroke-opacity: 0.15; stroke-width: 0.8"/>
     </g>
     <g id="line2d_6">
      <g>
       <use xlink:href="#md91bc29010" x="333.03348" y="225.254838" style="stroke: #000000; stroke-width: 0.8"/>
      </g>
     </g>
     <g id="text_3">
      <!-- 1000 -->
      <g transform="translate(324.03348 234.942338) scale(0.09 -0.09)">
       <defs>
        <path id="SimHei-31" d="M 1400 3600 
Q 1075 3275 575 2975 
L 575 3450 
Q 1200 3875 1600 4450 
L 1900 4450 
L 1900 150 
L 1400 150 
L 1400 3600 
z
" transform="scale(0.015625)"/>
       </defs>
       <use xlink:href="#SimHei-31"/>
       <use xlink:href="#SimHei-30" x="50"/>
       <use xlink:href="#SimHei-30" x="100"/>
       <use xlink:href="#SimHei-30" x="150"/>
      </g>
     </g>
    </g>
    <g id="xtick_4">
     <g id="line2d_7">
      <path d="M 473.50022 225.254838 
L 473.50022 20.101088 
" clip-path="url(#p883ca60c89)" style="fill: none; stroke-dasharray: 0.8,1.32; stroke-dashoffset: 0; stroke: #b0b0b0; stroke-opacity: 0.15; stroke-width: 0.8"/>
     </g>
     <g id="line2d_8">
      <g>
       <use xlink:href="#md91bc29010" x="473.50022" y="225.254838" style="stroke: #000000; stroke-width: 0.8"/>
      </g>
     </g>
     <g id="text_4">
      <!-- 1500 -->
      <g transform="translate(464.50022 234.942338) scale(0.09 -0.09)">
       <use xlink:href="#SimHei-31"/>
       <use xlink:href="#SimHei-35" x="50"/>
       <use xlink:href="#SimHei-30" x="100"/>
       <use xlink:href="#SimHei-30" x="150"/>
      </g>
     </g>
    </g>
    <g id="xtick_5">
     <g id="line2d_9">
      <path d="M 613.96696 225.254838 
L 613.96696 20.101088 
" clip-path="url(#p883ca60c89)" style="fill: none; stroke-dasharray: 0.8,1.32; stroke-dashoffset: 0; stroke: #b0b0b0; stroke-opacity: 0.15; stroke-width: 0.8"/>
     </g>
     <g id="line2d_10">
      <g>
       <use xlink:href="#md91bc29010" x="613.96696" y="225.254838" style="stroke: #000000; stroke-width: 0.8"/>
      </g>
     </g>
     <g id="text_5">
      <!-- 2000 -->
      <g transform="translate(604.96696 234.942338) scale(0.09 -0.09)">
       <defs>
        <path id="SimHei-32" d="M 300 250 
Q 325 625 650 925 
Q 975 1225 1475 1862 
Q 1975 2500 2125 2850 
Q 2275 3200 2237 3450 
Q 2200 3700 2000 3862 
Q 1800 4025 1537 4000 
Q 1275 3975 1037 3800 
Q 800 3625 675 3275 
L 200 3350 
Q 400 3925 712 4187 
Q 1025 4450 1450 4475 
Q 1700 4500 1900 4462 
Q 2100 4425 2312 4287 
Q 2525 4150 2662 3875 
Q 2800 3600 2762 3212 
Q 2725 2825 2375 2287 
Q 2025 1750 1025 600 
L 2825 600 
L 2825 150 
L 300 150 
L 300 250 
z
" transform="scale(0.015625)"/>
       </defs>
       <use xlink:href="#SimHei-32"/>
       <use xlink:href="#SimHei-30" x="50"/>
       <use xlink:href="#SimHei-30" x="100"/>
       <use xlink:href="#SimHei-30" x="150"/>
      </g>
     </g>
    </g>
   </g>
   <g id="matplotlib.axis_2">
    <g id="ytick_1">
     <g id="line2d_11">
      <defs>
       <path id="m9a80271425" d="M 0 0 
L 3.5 0 
" style="stroke: #000000; stroke-width: 0.8"/>
      </defs>
      <g>
       <use xlink:href="#m9a80271425" x="52.1" y="189.286323" style="stroke: #000000; stroke-width: 0.8"/>
      </g>
     </g>
     <g id="text_6">
      <!-- 年度总成本 -->
      <g transform="translate(3.6 188.969917) scale(0.09 -0.09)">
       <defs>
        <path id="SimHei-5e74" d="M 350 2925 
Q 900 3450 1375 4200 
Q 1850 4950 1900 5275 
Q 2275 5125 2600 5050 
Q 2375 4825 2100 4325 
L 4625 4325 
Q 5175 4325 5750 4350 
L 5750 3925 
Q 5225 3950 4625 3950 
L 3800 3950 
L 3800 2925 
Q 4750 2925 5475 2950 
L 5475 2525 
Q 4725 2550 3800 2550 
L 3800 1375 
L 5075 1375 
Q 5625 1375 6100 1400 
L 6100 975 
Q 5650 1000 5075 1000 
L 3800 1000 
L 3800 425 
Q 3800 -150 3825 -625 
L 3275 -625 
Q 3300 -150 3300 375 
L 3300 1000 
L 1600 1000 
Q 900 1000 275 975 
L 275 1400 
Q 875 1375 1450 1375 
Q 1450 2350 1425 2925 
L 3300 2925 
L 3300 3950 
L 1875 3950 
Q 1350 3150 925 2650 
Q 650 2875 350 2925 
z
M 3300 1375 
L 3300 2550 
L 1925 2550 
L 1925 1375 
L 3300 1375 
z
" transform="scale(0.015625)"/>
        <path id="SimHei-5ea6" d="M 1750 1675 
Q 2450 1650 2875 1650 
L 5200 1650 
Q 4975 1250 4650 850 
Q 4325 450 4025 200 
Q 4350 50 4950 -50 
Q 5550 -150 6100 -150 
Q 5950 -300 5825 -650 
Q 5100 -550 4550 -412 
Q 4000 -275 3625 -100 
Q 3100 -325 2587 -462 
Q 2075 -600 1525 -675 
Q 1450 -475 1225 -250 
Q 1675 -250 2250 -125 
Q 2825 0 3250 200 
Q 2825 550 2400 1275 
L 1750 1250 
L 1750 1675 
z
M 2975 5075 
Q 3250 5150 3475 5250 
Q 3625 4975 3775 4525 
L 4700 4525 
Q 4975 4525 5700 4550 
L 5700 4100 
Q 5000 4125 4650 4125 
L 1375 4125 
Q 1375 3000 1350 2312 
Q 1325 1625 1212 950 
Q 1100 275 725 -525 
Q 500 -375 250 -300 
Q 650 400 762 1075 
Q 875 1750 887 2800 
Q 900 3850 875 4525 
L 3200 4525 
Q 3100 4850 2975 5075 
z
M 2475 3300 
Q 2475 3700 2450 3925 
L 2975 3925 
Q 2950 3725 2950 3300 
L 4300 3300 
Q 4300 3700 4275 3950 
L 4800 3950 
Q 4775 3650 4775 3300 
Q 5325 3300 5725 3325 
L 5725 2900 
Q 5350 2925 4775 2925 
Q 4775 2250 4800 1950 
L 2450 1950 
Q 2475 2350 2475 2925 
Q 2175 2925 1600 2900 
L 1600 3325 
Q 2175 3300 2475 3300 
z
M 4300 2350 
L 4300 2925 
L 2950 2925 
L 2950 2350 
L 4300 2350 
z
M 2875 1275 
Q 3200 775 3650 425 
Q 4025 700 4425 1275 
L 2900 1275 
L 2875 1275 
z
" transform="scale(0.015625)"/>
        <path id="SimHei-603b" d="M 4550 4850 
Q 4375 4650 4025 3900 
L 5100 3900 
Q 5075 3425 5075 2950 
Q 5075 2500 5100 2025 
L 1175 2025 
Q 1200 2550 1200 3000 
Q 1200 3475 1175 3900 
L 2175 3900 
Q 1900 4350 1525 4750 
Q 1700 4850 1875 5050 
Q 2350 4550 2575 4200 
Q 2400 4075 2250 3900 
L 3550 3900 
Q 3875 4700 3950 5100 
Q 4300 4925 4550 4850 
z
M 4600 2450 
L 4600 3525 
L 1650 3525 
L 1650 2450 
L 4600 2450 
z
M 2275 1450 
Q 2250 1050 2250 675 
Q 2250 300 2262 112 
Q 2275 -75 2675 -75 
L 4000 -75 
Q 4325 -75 4400 550 
Q 4650 400 4925 325 
Q 4775 -200 4562 -337 
Q 4350 -475 4000 -450 
L 2325 -450 
Q 1850 -450 1825 -175 
Q 1800 100 1800 525 
Q 1800 975 1775 1450 
L 2275 1450 
z
M 1350 1325 
Q 1050 300 825 -250 
Q 625 -150 375 -50 
Q 675 525 900 1500 
Q 1100 1425 1350 1325 
z
M 4950 1575 
Q 5700 825 6000 450 
Q 5825 275 5625 100 
Q 5375 450 4600 1275 
Q 4750 1375 4950 1575 
z
M 3350 575 
Q 2975 1175 2675 1500 
Q 2825 1650 3000 1800 
Q 3225 1575 3750 875 
Q 3525 775 3350 575 
z
" transform="scale(0.015625)"/>
        <path id="SimHei-6210" d="M 3500 4000 
Q 3475 4725 3450 5225 
Q 3750 5200 4025 5175 
Q 3975 4850 4000 4000 
L 4725 4000 
Q 5250 4000 5875 4025 
L 5875 3550 
Q 5225 3575 4725 3575 
L 4025 3575 
Q 4050 2625 4350 1500 
Q 4825 2225 5100 3175 
Q 5350 2975 5675 2825 
Q 5475 2600 5225 2075 
Q 4975 1550 4575 975 
Q 4800 525 5062 262 
Q 5325 0 5425 37 
Q 5525 75 5625 900 
Q 5875 700 6150 600 
Q 5975 -425 5762 -537 
Q 5550 -650 5250 -537 
Q 4950 -425 4687 -112 
Q 4425 200 4250 575 
Q 3650 -75 2725 -650 
Q 2600 -425 2350 -250 
Q 2850 -25 3312 350 
Q 3775 725 4000 1050 
Q 3825 1525 3700 2212 
Q 3575 2900 3550 3575 
L 1400 3575 
L 1400 2700 
L 3025 2700 
Q 2975 2250 2950 1775 
L 2875 775 
Q 2850 300 2612 200 
Q 2375 100 1800 50 
Q 1775 275 1600 600 
Q 2225 575 2325 675 
Q 2425 775 2450 1250 
L 2500 2250 
L 1400 2250 
Q 1400 1275 1250 625 
Q 1100 -25 700 -575 
Q 425 -375 200 -300 
Q 525 100 650 462 
Q 775 825 837 1250 
Q 900 1675 912 2450 
Q 925 3225 900 4000 
L 3500 4000 
z
M 4750 5225 
Q 5250 4825 5625 4425 
Q 5400 4250 5225 4075 
Q 4925 4475 4425 4900 
Q 4600 5050 4750 5225 
z
" transform="scale(0.015625)"/>
        <path id="SimHei-672c" d="M 2950 3925 
L 2950 4425 
Q 2950 4825 2925 5175 
L 3475 5175 
Q 3450 4900 3450 4450 
L 3450 3925 
L 4850 3925 
Q 5275 3925 5850 3950 
L 5850 3475 
Q 5300 3500 4875 3500 
L 3850 3500 
Q 4200 2350 4862 1687 
Q 5525 1025 6075 800 
Q 5850 625 5650 325 
Q 4800 900 4262 1637 
Q 3725 2375 3450 3350 
L 3450 1000 
L 3775 1000 
Q 4175 1000 4600 1025 
L 4600 550 
Q 4175 575 3750 575 
L 3450 575 
Q 3450 0 3475 -600 
L 2925 -600 
Q 2950 0 2950 575 
L 2625 575 
Q 2225 575 1825 550 
L 1825 1025 
Q 2225 1000 2625 1000 
L 2950 1000 
L 2950 3300 
Q 2550 2275 2062 1575 
Q 1575 875 750 175 
Q 550 450 275 575 
Q 1100 1075 1650 1825 
Q 2200 2575 2525 3500 
L 1425 3500 
Q 1025 3500 575 3475 
L 575 3950 
Q 1025 3925 1400 3925 
L 2950 3925 
z
" transform="scale(0.015625)"/>
       </defs>
       <use xlink:href="#SimHei-5e74"/>
       <use xlink:href="#SimHei-5ea6" x="100"/>
       <use xlink:href="#SimHei-603b" x="200"/>
       <use xlink:href="#SimHei-6210" x="300"/>
       <use xlink:href="#SimHei-672c" x="400"/>
      </g>
      <!-- (万元) -->
      <g transform="translate(21.6 198.194917) scale(0.09 -0.09)">
       <defs>
        <path id="SimHei-28" d="M 2975 -200 
L 2700 -475 
Q 2075 125 1762 775 
Q 1450 1425 1450 2250 
Q 1450 3075 1762 3725 
Q 2075 4375 2700 5000 
L 2975 4725 
Q 2400 4175 2112 3587 
Q 1825 3000 1825 2250 
Q 1825 1500 2112 912 
Q 2400 325 2975 -200 
z
" transform="scale(0.015625)"/>
        <path id="SimHei-4e07" d="M 3650 -550 
Q 3550 -175 3400 25 
Q 3925 0 4137 50 
Q 4350 100 4400 225 
Q 4450 350 4487 812 
Q 4525 1275 4600 2625 
L 2675 2625 
Q 2350 550 900 -600 
Q 675 -325 400 -250 
Q 1125 200 1700 1237 
Q 2275 2275 2275 4250 
L 1525 4250 
Q 975 4250 550 4225 
L 550 4700 
Q 950 4675 1550 4675 
L 4950 4675 
Q 5500 4675 5950 4700 
L 5950 4225 
Q 5500 4250 4950 4250 
L 2800 4250 
Q 2775 3625 2725 3075 
L 5150 3075 
Q 5000 775 4950 287 
Q 4900 -200 4550 -350 
Q 4200 -500 3650 -550 
z
" transform="scale(0.015625)"/>
        <path id="SimHei-5143" d="M 4900 3175 
Q 5200 3175 5650 3200 
L 5650 2675 
Q 5200 2700 4900 2700 
L 4075 2700 
L 4075 425 
Q 4075 75 4450 75 
L 5175 75 
Q 5425 75 5525 775 
Q 5800 600 6075 550 
Q 5950 -325 5300 -375 
L 4150 -375 
Q 3575 -375 3575 225 
L 3575 2700 
L 2675 2700 
Q 2775 400 900 -600 
Q 725 -375 400 -175 
Q 2250 500 2150 2700 
L 1500 2700 
Q 1125 2700 650 2675 
L 650 3200 
Q 1125 3175 1500 3175 
L 4900 3175 
z
M 4450 4775 
Q 4675 4775 5150 4800 
L 5150 4325 
Q 4700 4350 4450 4350 
L 1875 4350 
Q 1575 4350 1200 4325 
L 1200 4800 
Q 1575 4775 1850 4775 
L 4450 4775 
z
" transform="scale(0.015625)"/>
        <path id="SimHei-29" d="M 1675 2250 
Q 1675 1425 1362 775 
Q 1050 125 425 -475 
L 150 -200 
Q 725 325 1012 912 
Q 1300 1500 1300 2250 
Q 1300 3000 1012 3587 
Q 725 4175 150 4725 
L 425 5000 
Q 1050 4375 1362 3725 
Q 1675 3075 1675 2250 
z
" transform="scale(0.015625)"/>
       </defs>
       <use xlink:href="#SimHei-28"/>
       <use xlink:href="#SimHei-4e07" x="50"/>
       <use xlink:href="#SimHei-5143" x="150"/>
       <use xlink:href="#SimHei-29" x="250"/>
      </g>
     </g>
    </g>
    <g id="ytick_2">
     <g id="line2d_12">
      <g>
       <use xlink:href="#m9a80271425" x="52.1" y="56.069602" style="stroke: #000000; stroke-width: 0.8"/>
      </g>
     </g>
     <g id="text_7">
      <!-- E_plan总量 -->
      <g transform="translate(3.6 55.682884) scale(0.09 -0.09)">
       <defs>
        <path id="SimHei-45" d="M 2900 125 
L 350 125 
L 350 4400 
L 2775 4400 
L 2775 3925 
L 925 3925 
L 925 2600 
L 2625 2600 
L 2625 2125 
L 925 2125 
L 925 600 
L 2900 600 
L 2900 125 
z
" transform="scale(0.015625)"/>
        <path id="SimHei-5f" d="M 3150 -850 
L 0 -850 
L 0 -550 
L 3150 -550 
L 3150 -850 
z
" transform="scale(0.015625)"/>
        <path id="SimHei-70" d="M 2825 1525 
Q 2825 800 2475 425 
Q 2125 50 1625 50 
Q 1350 50 1150 162 
Q 950 275 800 500 
L 800 -800 
L 300 -800 
L 300 2925 
L 800 2925 
L 800 2550 
Q 950 2775 1150 2875 
Q 1350 2975 1625 2975 
Q 2125 2975 2475 2612 
Q 2825 2250 2825 1525 
z
M 2275 1525 
Q 2275 2000 2087 2262 
Q 1900 2525 1525 2525 
Q 1225 2525 1012 2262 
Q 800 2000 800 1525 
Q 800 1050 1012 775 
Q 1225 500 1525 500 
Q 1900 500 2087 775 
Q 2275 1050 2275 1525 
z
" transform="scale(0.015625)"/>
        <path id="SimHei-6c" d="M 1825 125 
L 1325 125 
L 1325 4400 
L 1825 4400 
L 1825 125 
z
" transform="scale(0.015625)"/>
        <path id="SimHei-61" d="M 2875 125 
L 2275 125 
Q 2225 175 2200 262 
Q 2175 350 2175 475 
Q 2000 275 1750 175 
Q 1500 75 1225 75 
Q 825 75 550 275 
Q 275 475 275 850 
Q 275 1225 525 1450 
Q 775 1675 1300 1750 
Q 1650 1800 1912 1875 
Q 2175 1950 2175 2075 
Q 2175 2225 2062 2375 
Q 1950 2525 1575 2525 
Q 1275 2525 1137 2412 
Q 1000 2300 950 2100 
L 400 2100 
Q 450 2500 762 2737 
Q 1075 2975 1575 2975 
Q 2125 2975 2400 2725 
Q 2675 2475 2675 2025 
L 2675 650 
Q 2675 500 2725 375 
Q 2775 250 2875 125 
z
M 2175 1050 
L 2175 1550 
Q 2025 1500 1887 1462 
Q 1750 1425 1425 1375 
Q 1050 1325 937 1200 
Q 825 1075 825 900 
Q 825 750 937 637 
Q 1050 525 1275 525 
Q 1500 525 1762 650 
Q 2025 775 2175 1050 
z
" transform="scale(0.015625)"/>
        <path id="SimHei-6e" d="M 2800 125 
L 2300 125 
L 2300 1925 
Q 2300 2225 2150 2400 
Q 2000 2575 1750 2575 
Q 1425 2575 1137 2237 
Q 850 1900 850 1400 
L 850 125 
L 350 125 
L 350 2925 
L 850 2925 
L 850 2400 
Q 1050 2675 1287 2825 
Q 1525 2975 1900 2975 
Q 2350 2975 2575 2725 
Q 2800 2475 2800 2100 
L 2800 125 
z
" transform="scale(0.015625)"/>
        <path id="SimHei-91cf" d="M 5250 2500 
Q 5225 2200 5225 1700 
Q 5225 1225 5250 950 
L 3425 950 
L 3425 625 
L 4575 625 
Q 5000 625 5375 650 
L 5375 275 
Q 5025 300 4575 300 
L 3425 300 
L 3425 -75 
L 5125 -75 
Q 5525 -75 5925 -50 
L 5925 -425 
Q 5525 -400 5125 -400 
L 1275 -400 
Q 900 -400 475 -425 
L 475 -50 
Q 925 -50 1275 -75 
L 2975 -75 
L 2975 300 
L 1725 300 
Q 1350 300 975 250 
L 975 650 
Q 1375 625 1725 625 
L 2975 625 
L 2975 950 
L 1150 950 
Q 1175 1375 1175 1775 
Q 1175 2175 1150 2500 
L 5250 2500 
z
M 5200 4950 
Q 5175 4575 5175 4250 
Q 5175 3925 5200 3400 
L 1200 3400 
Q 1225 3925 1225 4250 
Q 1225 4575 1200 4950 
L 5200 4950 
z
M 4900 3100 
Q 5500 3125 6000 3150 
L 6000 2750 
Q 5500 2775 4925 2775 
L 1650 2775 
Q 975 2775 325 2750 
L 325 3150 
Q 975 3125 1650 3100 
L 4900 3100 
z
M 4725 3700 
L 4725 4025 
L 1675 4025 
L 1675 3700 
L 4725 3700 
z
M 4725 4350 
L 4725 4650 
L 1675 4650 
L 1675 4350 
L 4725 4350 
z
M 4750 1875 
L 4750 2175 
L 3425 2175 
L 3425 1875 
L 4750 1875 
z
M 2975 1875 
L 2975 2175 
L 1650 2175 
L 1650 1875 
L 2975 1875 
z
M 2975 1275 
L 2975 1550 
L 1650 1550 
L 1650 1275 
L 2975 1275 
z
M 4750 1275 
L 4750 1550 
L 3425 1550 
L 3425 1275 
L 4750 1275 
z
" transform="scale(0.015625)"/>
       </defs>
       <use xlink:href="#SimHei-45"/>
       <use xlink:href="#SimHei-5f" x="50"/>
       <use xlink:href="#SimHei-70" x="100"/>
       <use xlink:href="#SimHei-6c" x="150"/>
       <use xlink:href="#SimHei-61" x="200"/>
       <use xlink:href="#SimHei-6e" x="250"/>
       <use xlink:href="#SimHei-603b" x="300"/>
       <use xlink:href="#SimHei-91cf" x="400"/>
      </g>
      <!-- (万kWh) -->
      <g transform="translate(17.1 64.978196) scale(0.09 -0.09)">
       <defs>
        <path id="SimHei-6b" d="M 2925 125 
L 2350 125 
L 1450 1650 
L 875 1100 
L 875 125 
L 375 125 
L 375 4400 
L 875 4400 
L 875 1675 
L 2125 2925 
L 2750 2925 
L 1775 1975 
L 2925 125 
z
" transform="scale(0.015625)"/>
        <path id="SimHei-57" d="M 3075 4400 
L 2525 75 
L 2025 75 
L 1575 3275 
L 1525 3275 
L 1075 75 
L 575 75 
L 25 4400 
L 575 4400 
L 850 1675 
L 900 1675 
L 1275 4400 
L 1825 4400 
L 2200 1675 
L 2250 1675 
L 2525 4400 
L 3075 4400 
z
" transform="scale(0.015625)"/>
        <path id="SimHei-68" d="M 2800 125 
L 2300 125 
L 2300 1925 
Q 2300 2225 2150 2400 
Q 2000 2575 1750 2575 
Q 1425 2575 1137 2237 
Q 850 1900 850 1400 
L 850 125 
L 350 125 
L 350 4400 
L 850 4400 
L 850 2400 
Q 1050 2675 1287 2825 
Q 1525 2975 1900 2975 
Q 2350 2975 2575 2725 
Q 2800 2475 2800 2100 
L 2800 125 
z
" transform="scale(0.015625)"/>
       </defs>
       <use xlink:href="#SimHei-28"/>
       <use xlink:href="#SimHei-4e07" x="50"/>
       <use xlink:href="#SimHei-6b" x="150"/>
       <use xlink:href="#SimHei-57" x="200"/>
       <use xlink:href="#SimHei-68" x="250"/>
       <use xlink:href="#SimHei-29" x="300"/>
      </g>
     </g>
    </g>
   </g>
   <g id="patch_7">
    <path d="M 52.1 225.254838 
L 52.1 20.101088 
" style="fill: none; stroke: #000000; stroke-width: 0.8; stroke-linejoin: miter; stroke-linecap: square"/>
   </g>
   <g id="patch_8">
    <path d="M 52.1 225.254838 
L 704.16 225.254838 
" style="fill: none; stroke: #000000; stroke-width: 0.8; stroke-linejoin: miter; stroke-linecap: square"/>
   </g>
   <g id="text_8">
    <!-- 1287.1 -->
    <g style="fill: #ffffff" transform="translate(219.389619 181.160235) scale(0.09 -0.09)">
     <defs>
      <path id="SimHei-38" d="M 175 1375 
Q 175 1675 325 1962 
Q 475 2250 825 2425 
Q 525 2600 425 2812 
Q 325 3025 312 3300 
Q 300 3575 387 3775 
Q 475 3975 650 4150 
Q 825 4325 1037 4387 
Q 1250 4450 1500 4450 
Q 1750 4450 1950 4400 
Q 2150 4350 2375 4187 
Q 2600 4025 2700 3725 
Q 2800 3425 2687 3025 
Q 2575 2625 2100 2400 
Q 2525 2275 2700 2012 
Q 2875 1750 2875 1375 
Q 2875 1000 2762 775 
Q 2650 550 2512 400 
Q 2375 250 2137 162 
Q 1900 75 1537 75 
Q 1175 75 912 162 
Q 650 250 475 425 
Q 300 600 237 837 
Q 175 1075 175 1375 
z
M 687 1400 
Q 675 1100 787 875 
Q 900 650 1200 587 
Q 1500 525 1825 600 
Q 2150 675 2275 950 
Q 2400 1225 2362 1500 
Q 2325 1775 2050 1962 
Q 1775 2150 1450 2125 
Q 1125 2100 912 1900 
Q 700 1700 687 1400 
z
M 775 3350 
Q 775 3100 950 2875 
Q 1125 2650 1500 2650 
Q 1875 2650 2062 2875 
Q 2250 3100 2237 3412 
Q 2225 3725 2012 3875 
Q 1800 4025 1437 4000 
Q 1075 3975 925 3787 
Q 775 3600 775 3350 
z
" transform="scale(0.015625)"/>
      <path id="SimHei-37" d="M 850 150 
Q 1300 2050 2425 3925 
L 275 3925 
L 275 4375 
L 2950 4375 
L 2950 3950 
Q 1775 2050 1400 150 
L 850 150 
z
" transform="scale(0.015625)"/>
      <path id="SimHei-2e" d="M 1075 125 
L 500 125 
L 500 675 
L 1075 675 
L 1075 125 
z
" transform="scale(0.015625)"/>
     </defs>
     <use xlink:href="#SimHei-31"/>
     <use xlink:href="#SimHei-32" x="50"/>
     <use xlink:href="#SimHei-38" x="100"/>
     <use xlink:href="#SimHei-37" x="150"/>
     <use xlink:href="#SimHei-2e" x="200"/>
     <use xlink:href="#SimHei-31" x="250"/>
    </g>
   </g>
   <g id="text_9">
    <!-- (91.1%) -->
    <g style="fill: #ffffff" transform="translate(218.889619 202.365536) scale(0.08 -0.08)">
     <defs>
      <path id="SimHei-39" d="M 800 75 
Q 1350 1000 1700 1750 
Q 1075 1650 662 1912 
Q 250 2175 162 2625 
Q 75 3075 175 3437 
Q 275 3800 487 4037 
Q 700 4275 1000 4375 
Q 1300 4475 1537 4475 
Q 1775 4475 2025 4375 
Q 2275 4275 2475 4075 
Q 2675 3875 2750 3662 
Q 2825 3450 2825 3112 
Q 2825 2775 2575 2250 
Q 2325 1725 1350 75 
L 800 75 
z
M 662 2875 
Q 700 2550 937 2337 
Q 1175 2125 1450 2150 
Q 1725 2175 1887 2300 
Q 2050 2425 2200 2725 
Q 2300 3100 2250 3362 
Q 2200 3625 1987 3800 
Q 1775 3975 1525 3975 
Q 1375 4000 1137 3900 
Q 900 3800 762 3500 
Q 625 3200 662 2875 
z
" transform="scale(0.015625)"/>
      <path id="SimHei-25" d="M 1400 3325 
Q 1400 2600 1187 2400 
Q 975 2200 775 2200 
Q 575 2200 362 2400 
Q 150 2600 150 3325 
Q 150 4050 362 4250 
Q 575 4450 775 4450 
Q 975 4450 1187 4250 
Q 1400 4050 1400 3325 
z
M 2625 4375 
L 700 75 
L 500 150 
L 2425 4450 
L 2625 4375 
z
M 2975 1200 
Q 2975 475 2762 275 
Q 2550 75 2350 75 
Q 2150 75 1937 275 
Q 1725 475 1725 1200 
Q 1725 1925 1937 2125 
Q 2150 2325 2350 2325 
Q 2550 2325 2762 2125 
Q 2975 1925 2975 1200 
z
M 1000 3325 
Q 1000 3775 950 3925 
Q 900 4075 775 4075 
Q 650 4075 600 3925 
Q 550 3775 550 3325 
Q 550 2875 600 2725 
Q 650 2575 775 2575 
Q 900 2575 950 2725 
Q 1000 2875 1000 3325 
z
M 2575 1200 
Q 2575 1650 2525 1800 
Q 2475 1950 2350 1950 
Q 2225 1950 2175 1800 
Q 2125 1650 2125 1200 
Q 2125 750 2175 600 
Q 2225 450 2350 450 
Q 2475 450 2525 600 
Q 2575 750 2575 1200 
z
" transform="scale(0.015625)"/>
     </defs>
     <use xlink:href="#SimHei-28"/>
     <use xlink:href="#SimHei-39" x="50"/>
     <use xlink:href="#SimHei-31" x="100"/>
     <use xlink:href="#SimHei-2e" x="150"/>
     <use xlink:href="#SimHei-31" x="200"/>
     <use xlink:href="#SimHei-25" x="250"/>
     <use xlink:href="#SimHei-29" x="300"/>
    </g>
   </g>
   <g id="text_10">
    <!-- 125.0 -->
    <g style="fill: #ffffff" transform="translate(419.983211 181.160235) scale(0.09 -0.09)">
     <use xlink:href="#SimHei-31"/>
     <use xlink:href="#SimHei-32" x="50"/>
     <use xlink:href="#SimHei-35" x="100"/>
     <use xlink:href="#SimHei-2e" x="150"/>
     <use xlink:href="#SimHei-30" x="200"/>
    </g>
   </g>
   <g id="text_11">
    <g id="patch_9">
     <path d="M 419.233211 205.765536 
L 443.233211 205.765536 
Q 445.633211 205.765536 445.633211 203.365536 
L 445.633211 196.521786 
Q 445.633211 194.121786 443.233211 194.121786 
L 419.233211 194.121786 
Q 416.833211 194.121786 416.833211 196.521786 
L 416.833211 203.365536 
Q 416.833211 205.765536 419.233211 205.765536 
z
" style="fill: #b85450; opacity: 0.3"/>
    </g>
    <!-- (8.9%) -->
    <g style="fill: #ffffff" transform="translate(419.233211 202.365536) scale(0.08 -0.08)">
     <use xlink:href="#SimHei-28"/>
     <use xlink:href="#SimHei-38" x="50"/>
     <use xlink:href="#SimHei-2e" x="100"/>
     <use xlink:href="#SimHei-39" x="150"/>
     <use xlink:href="#SimHei-25" x="200"/>
     <use xlink:href="#SimHei-29" x="250"/>
    </g>
   </g>
   <g id="text_12">
    <!-- 2047.7 -->
    <g style="fill: #ffffff" transform="translate(326.234594 47.943515) scale(0.09 -0.09)">
     <defs>
      <path id="SimHei-34" d="M 2000 1100 
L 75 1100 
L 75 1525 
L 2100 4450 
L 2475 4450 
L 2475 1525 
L 3075 1525 
L 3075 1100 
L 2475 1100 
L 2475 150 
L 2000 150 
L 2000 1100 
z
M 2000 1525 
L 2000 3500 
L 600 1525 
L 2000 1525 
z
" transform="scale(0.015625)"/>
     </defs>
     <use xlink:href="#SimHei-32"/>
     <use xlink:href="#SimHei-30" x="50"/>
     <use xlink:href="#SimHei-34" x="100"/>
     <use xlink:href="#SimHei-37" x="150"/>
     <use xlink:href="#SimHei-2e" x="200"/>
     <use xlink:href="#SimHei-37" x="250"/>
    </g>
   </g>
   <g id="text_13">
    <!-- (98.8%) -->
    <g style="fill: #ffffff" transform="translate(325.734594 69.148815) scale(0.08 -0.08)">
     <use xlink:href="#SimHei-28"/>
     <use xlink:href="#SimHei-39" x="50"/>
     <use xlink:href="#SimHei-38" x="100"/>
     <use xlink:href="#SimHei-2e" x="150"/>
     <use xlink:href="#SimHei-38" x="200"/>
     <use xlink:href="#SimHei-25" x="250"/>
     <use xlink:href="#SimHei-29" x="300"/>
    </g>
   </g>
   <g id="patch_10">
    <path d="M 612.844028 14.277974 
Q 621.442608 34.25424 629.510745 52.998178 
" style="fill: none; stroke: #b85450; stroke-width: 1.2; stroke-linecap: round"/>
    <path d="M 629.715201 49.426316 
L 629.510745 52.998178 
L 626.775929 50.691496 
" style="fill: none; stroke: #b85450; stroke-width: 1.2; stroke-linecap: round"/>
   </g>
   <g id="text_14">
    <!-- 24.7 (1.2%) -->
    <g style="fill: #b85450" transform="translate(587.720714 9.44375) scale(0.08 -0.08)">
     <defs>
      <path id="SimHei-20" transform="scale(0.015625)"/>
     </defs>
     <use xlink:href="#SimHei-32"/>
     <use xlink:href="#SimHei-34" x="50"/>
     <use xlink:href="#SimHei-2e" x="100"/>
     <use xlink:href="#SimHei-37" x="150"/>
     <use xlink:href="#SimHei-20" x="200"/>
     <use xlink:href="#SimHei-28" x="250"/>
     <use xlink:href="#SimHei-31" x="300"/>
     <use xlink:href="#SimHei-2e" x="350"/>
     <use xlink:href="#SimHei-32" x="400"/>
     <use xlink:href="#SimHei-25" x="450"/>
     <use xlink:href="#SimHei-29" x="500"/>
    </g>
   </g>
   <g id="text_15">
    <!-- 1412.0 -->
    <g transform="translate(456.720928 191.817573) scale(0.09 -0.09)">
     <use xlink:href="#SimHei-31"/>
     <use xlink:href="#SimHei-34" x="50"/>
     <use xlink:href="#SimHei-31" x="100"/>
     <use xlink:href="#SimHei-32" x="150"/>
     <use xlink:href="#SimHei-2e" x="200"/>
     <use xlink:href="#SimHei-30" x="250"/>
    </g>
   </g>
   <g id="text_16">
    <!-- 2072.4 -->
    <g transform="translate(645.940357 58.600852) scale(0.09 -0.09)">
     <use xlink:href="#SimHei-32"/>
     <use xlink:href="#SimHei-30" x="50"/>
     <use xlink:href="#SimHei-37" x="100"/>
     <use xlink:href="#SimHei-32" x="150"/>
     <use xlink:href="#SimHei-2e" x="200"/>
     <use xlink:href="#SimHei-34" x="250"/>
    </g>
   </g>
   <g id="legend_1">
    <g id="patch_11">
     <path d="M 622.56 205.554838 
L 638.56 205.554838 
L 638.56 199.954838 
L 622.56 199.954838 
z
" style="fill: #7b9eb6"/>
    </g>
    <g id="text_17">
     <!-- 计划购电/使用 -->
     <g transform="translate(644.96 205.554838) scale(0.08 -0.08)">
      <defs>
       <path id="SimHei-8ba1" d="M 3925 3100 
L 3925 4350 
Q 3925 4850 3900 5125 
L 4425 5125 
Q 4400 4800 4400 4550 
L 4400 3100 
L 5425 3100 
Q 5725 3100 6075 3125 
L 6075 2650 
Q 5700 2675 5450 2675 
L 4400 2675 
L 4400 175 
Q 4400 -125 4425 -550 
L 3900 -550 
Q 3925 -125 3925 150 
L 3925 2675 
L 2950 2675 
Q 2575 2675 2200 2650 
L 2200 3125 
Q 2575 3100 2900 3100 
L 3925 3100 
z
M 1775 3150 
Q 1750 2675 1750 2150 
L 1750 625 
Q 2175 1050 2425 1400 
Q 2575 1200 2775 1000 
L 2075 300 
Q 1750 -25 1450 -350 
Q 1275 -125 1125 50 
Q 1300 250 1275 650 
L 1275 2725 
Q 600 2725 275 2700 
L 275 3175 
Q 675 3150 825 3150 
L 1775 3150 
z
M 1150 5050 
Q 1475 4725 2175 4000 
Q 1950 3800 1750 3625 
Q 1425 4100 775 4750 
Q 950 4875 1150 5050 
z
" transform="scale(0.015625)"/>
       <path id="SimHei-5212" d="M 1625 5050 
Q 1600 4700 1625 4287 
Q 1650 3875 1700 3425 
Q 2425 3500 3550 3700 
L 3600 3225 
Q 2175 3050 1750 2975 
Q 1800 2650 1900 2200 
Q 2000 1750 2075 1600 
Q 2275 1800 2512 2112 
Q 2750 2425 2975 2850 
Q 3125 2675 3425 2500 
Q 3250 2300 2937 1912 
Q 2625 1525 2250 1125 
Q 2550 575 2887 275 
Q 3225 -25 3275 125 
Q 3325 275 3325 675 
Q 3575 500 3875 450 
Q 3750 -375 3525 -450 
Q 3300 -525 3100 -462 
Q 2900 -400 2675 -212 
Q 2450 -25 2250 237 
Q 2050 500 1875 800 
Q 1550 525 1250 300 
Q 950 75 525 -200 
Q 400 75 225 250 
Q 625 450 962 662 
Q 1300 875 1675 1225 
Q 1575 1575 1475 1912 
Q 1375 2250 1275 2875 
Q 850 2825 350 2725 
L 275 3250 
Q 700 3275 1225 3350 
Q 1175 3875 1137 4237 
Q 1100 4600 1050 5100 
Q 1275 5050 1625 5050 
z
M 5800 5000 
Q 5750 4650 5750 4250 
L 5750 150 
Q 5750 -325 5475 -425 
Q 5200 -525 4650 -575 
Q 4625 -275 4475 75 
Q 5050 25 5162 75 
Q 5275 125 5275 375 
L 5275 4250 
Q 5275 4625 5250 5000 
L 5800 5000 
z
M 4525 4175 
Q 4500 3775 4500 3475 
L 4500 1650 
Q 4500 1275 4525 775 
L 4000 775 
Q 4025 1150 4025 1650 
L 4025 3525 
Q 4025 3750 3975 4175 
L 4525 4175 
z
M 2650 5000 
Q 2925 4675 3275 4175 
Q 3075 4050 2850 3875 
Q 2550 4425 2275 4700 
Q 2475 4825 2650 5000 
z
" transform="scale(0.015625)"/>
       <path id="SimHei-8d2d" d="M 5850 250 
Q 5800 -250 5525 -375 
Q 5250 -500 4675 -575 
Q 4625 -275 4450 -25 
Q 4950 -50 5150 25 
Q 5350 100 5375 325 
L 5425 3750 
L 3675 3750 
Q 3450 3250 3175 2800 
Q 3025 2925 2775 3025 
Q 3100 3475 3350 4137 
Q 3600 4800 3675 5200 
Q 3975 5075 4200 5000 
Q 4075 4800 3825 4175 
L 5925 4175 
Q 5900 3750 5900 3075 
L 5850 250 
z
M 2275 1200 
L 2275 4375 
L 975 4375 
L 975 1050 
L 500 1050 
Q 525 1625 525 2925 
Q 525 4225 500 4775 
L 2725 4775 
Q 2700 4225 2700 3000 
Q 2700 1800 2725 1200 
L 2275 1200 
z
M 200 -225 
Q 650 100 900 525 
Q 1150 950 1262 1450 
Q 1375 1950 1375 2575 
Q 1375 3200 1350 3875 
Q 1625 3825 1900 3825 
Q 1825 3425 1825 2825 
Q 1825 2250 1750 1650 
Q 1675 1050 1412 512 
Q 1150 -25 600 -575 
Q 375 -325 200 -225 
z
M 4725 2325 
Q 5000 1475 5175 900 
Q 4900 800 4700 725 
Q 4650 975 4600 1150 
Q 3600 1075 3200 875 
Q 3125 1125 2975 1400 
Q 3175 1500 3387 1937 
Q 3600 2375 3750 3175 
Q 4050 3025 4275 2975 
Q 4125 2700 3925 2237 
Q 3725 1775 3550 1450 
Q 4075 1500 4500 1525 
Q 4450 1750 4300 2200 
Q 4425 2225 4725 2325 
z
M 2525 -450 
Q 2275 -25 1650 600 
Q 1850 800 1975 950 
Q 2300 700 2925 -100 
Q 2725 -225 2525 -450 
z
" transform="scale(0.015625)"/>
       <path id="SimHei-7535" d="M 6150 325 
Q 5975 -250 5825 -412 
Q 5675 -575 5325 -575 
L 3375 -575 
Q 2700 -600 2675 100 
L 2675 975 
L 1225 975 
L 1225 500 
L 650 500 
Q 675 750 675 2225 
Q 675 3700 650 4150 
L 2675 4150 
Q 2675 4825 2650 5200 
L 3200 5200 
Q 3175 4875 3175 4150 
L 5200 4150 
Q 5175 3775 5175 2600 
Q 5175 1450 5200 975 
L 3175 975 
L 3175 300 
Q 3175 -150 3650 -150 
L 4975 -150 
Q 5375 -150 5450 25 
Q 5525 200 5575 575 
Q 5825 400 6150 325 
z
M 4675 1400 
L 4675 2400 
L 3175 2400 
L 3175 1400 
L 4675 1400 
z
M 2675 1400 
L 2675 2400 
L 1225 2400 
L 1225 1400 
L 2675 1400 
z
M 4675 2800 
L 4675 3725 
L 3175 3725 
L 3175 2800 
L 4675 2800 
z
M 2675 2800 
L 2675 3725 
L 1225 3725 
L 1225 2800 
L 2675 2800 
z
" transform="scale(0.015625)"/>
       <path id="SimHei-2f" d="M 3000 4550 
L 350 -175 
L 100 -25 
L 2750 4700 
L 3000 4550 
z
" transform="scale(0.015625)"/>
       <path id="SimHei-4f7f" d="M 3700 4375 
Q 3700 4925 3675 5250 
Q 4000 5200 4250 5175 
Q 4175 4925 4175 4375 
L 4975 4375 
Q 5525 4375 5975 4400 
L 5975 3950 
Q 5500 3975 4975 3975 
L 4175 3975 
L 4175 3425 
L 5700 3425 
Q 5675 3075 5675 2675 
Q 5675 2300 5700 1900 
L 4150 1900 
Q 4100 1100 3875 600 
Q 4575 -25 6100 -50 
Q 5925 -175 5825 -525 
Q 4500 -475 3575 225 
Q 3000 -375 2175 -675 
Q 2150 -500 1825 -300 
Q 2775 -25 3225 500 
Q 2800 925 2325 1500 
Q 2475 1575 2675 1775 
Q 3075 1225 3500 900 
Q 3650 1325 3675 1900 
L 2200 1900 
Q 2225 2300 2225 2700 
Q 2225 3100 2200 3425 
L 3700 3425 
L 3700 3975 
L 2875 3975 
Q 2350 3975 1975 3950 
L 1975 4400 
Q 2325 4375 2850 4375 
L 3700 4375 
z
M 1925 4975 
Q 1800 4825 1525 4050 
L 1525 600 
Q 1525 50 1550 -575 
L 1050 -575 
Q 1075 25 1075 550 
L 1075 3200 
Q 725 2475 600 2250 
Q 475 2475 225 2625 
Q 500 3000 887 3812 
Q 1275 4625 1350 5200 
L 1925 4975 
z
M 5200 2300 
L 5200 3050 
L 4175 3050 
L 4175 2300 
L 5200 2300 
z
M 3700 2300 
L 3700 3050 
L 2700 3050 
L 2700 2300 
L 3700 2300 
z
" transform="scale(0.015625)"/>
       <path id="SimHei-7528" d="M 350 -300 
Q 650 125 812 600 
Q 975 1075 1012 1550 
Q 1050 2025 1050 3150 
Q 1050 4275 1025 4950 
L 5500 4950 
Q 5475 4225 5475 3650 
L 5475 375 
Q 5475 -150 5175 -275 
Q 4875 -400 4475 -450 
Q 4425 -75 4300 125 
Q 4800 100 4887 162 
Q 4975 225 4975 400 
L 4975 1650 
L 3450 1650 
L 3450 675 
Q 3450 125 3475 -325 
L 2925 -325 
Q 2950 100 2950 650 
L 2950 1650 
L 1525 1650 
Q 1425 575 850 -525 
Q 575 -350 350 -300 
z
M 4975 3475 
L 4975 4550 
L 3450 4550 
L 3450 3475 
L 4975 3475 
z
M 4975 2050 
L 4975 3100 
L 3450 3100 
L 3450 2050 
L 4975 2050 
z
M 2950 3475 
L 2950 4550 
L 1525 4550 
L 1525 3475 
L 2950 3475 
z
M 2950 2050 
L 2950 3100 
L 1525 3100 
L 1525 2050 
L 2950 2050 
z
" transform="scale(0.015625)"/>
      </defs>
      <use xlink:href="#SimHei-8ba1"/>
      <use xlink:href="#SimHei-5212" x="100"/>
      <use xlink:href="#SimHei-8d2d" x="200"/>
      <use xlink:href="#SimHei-7535" x="300"/>
      <use xlink:href="#SimHei-2f" x="400"/>
      <use xlink:href="#SimHei-4f7f" x="450"/>
      <use xlink:href="#SimHei-7528" x="550"/>
     </g>
    </g>
    <g id="patch_12">
     <path d="M 622.56 217.054838 
L 638.56 217.054838 
L 638.56 211.454838 
L 622.56 211.454838 
z
" style="fill: #b85450"/>
    </g>
    <g id="text_18">
     <!-- 紧急购电/浪费 -->
     <g transform="translate(644.96 217.054838) scale(0.08 -0.08)">
      <defs>
       <path id="SimHei-7d27" d="M 3450 2200 
Q 3950 2500 4325 2800 
Q 4550 2575 4775 2400 
Q 4475 2300 3962 2025 
Q 3450 1750 2275 1200 
Q 3200 1225 4625 1325 
Q 4400 1575 4275 1675 
Q 4350 1700 4625 1975 
Q 5125 1500 5675 850 
Q 5500 750 5275 550 
L 4925 975 
Q 4325 925 3500 875 
L 3500 -100 
Q 3500 -475 3225 -562 
Q 2950 -650 2425 -725 
Q 2375 -475 2225 -175 
Q 2675 -200 2837 -175 
Q 3000 -150 3000 75 
L 3000 850 
Q 1600 825 1000 650 
Q 950 975 825 1150 
Q 1200 1200 1637 1337 
Q 2075 1475 2775 1825 
Q 2475 1825 2000 1775 
Q 1525 1725 1225 1675 
Q 1150 1925 1050 2125 
Q 1400 2150 1850 2375 
Q 2300 2600 2625 2925 
Q 2725 2775 3000 2550 
Q 2850 2525 2675 2425 
Q 2500 2325 2250 2175 
L 3450 2200 
z
M 5750 4800 
Q 5600 4475 5350 4150 
Q 5100 3825 4675 3475 
Q 5150 3175 6050 3000 
Q 5850 2800 5700 2525 
Q 5325 2650 4925 2825 
Q 4525 3000 4250 3200 
Q 3800 2925 3050 2650 
Q 2925 2850 2700 3075 
Q 3500 3225 3875 3475 
Q 3375 3950 3150 4450 
L 2775 4425 
L 2775 4825 
Q 3150 4800 3525 4800 
L 5750 4800 
z
M 2350 5050 
Q 2325 4775 2325 4400 
L 2325 3475 
Q 2325 3275 2350 2750 
L 1850 2750 
Q 1875 3200 1875 3475 
L 1875 4475 
Q 1875 4650 1850 5050 
L 2350 5050 
z
M 4300 825 
Q 5025 375 5775 -175 
Q 5575 -325 5400 -575 
Q 4800 -25 4000 475 
Q 4200 675 4300 825 
z
M 1225 4775 
Q 1200 4525 1200 4100 
L 1200 3550 
Q 1200 3225 1225 2850 
L 750 2850 
Q 775 3225 775 3550 
L 775 4100 
Q 775 4500 750 4775 
L 1225 4775 
z
M 2425 375 
Q 2200 300 1850 75 
Q 1500 -150 900 -550 
Q 775 -350 575 -175 
Q 1350 225 2075 750 
Q 2175 600 2425 375 
z
M 3625 4450 
Q 3900 4000 4275 3700 
Q 4675 3975 5000 4450 
L 3625 4450 
z
" transform="scale(0.015625)"/>
       <path id="SimHei-6025" d="M 2825 5025 
Q 2550 4825 2400 4575 
L 4925 4575 
Q 4800 4425 4600 4187 
Q 4400 3950 4150 3650 
L 5425 3650 
Q 5400 3275 5400 2625 
Q 5400 2000 5425 1525 
L 2025 1525 
Q 1600 1525 1050 1475 
L 1050 1950 
Q 1600 1925 2025 1925 
L 4900 1925 
L 4900 2400 
L 2000 2400 
Q 1625 2400 1125 2375 
L 1125 2800 
Q 1625 2775 2000 2775 
L 4900 2775 
L 4900 3300 
L 2450 3300 
Q 1800 3300 1400 3275 
L 1400 3525 
Q 1050 3225 775 2975 
Q 575 3200 375 3325 
Q 850 3625 1350 4150 
Q 1850 4675 2200 5275 
Q 2475 5125 2825 5025 
z
M 2375 1200 
Q 2350 750 2350 500 
Q 2350 250 2362 87 
Q 2375 -75 2625 -75 
L 3975 -75 
Q 4150 -75 4275 62 
Q 4400 200 4450 600 
L 5000 400 
Q 4825 -200 4625 -312 
Q 4425 -425 4050 -425 
L 2400 -425 
Q 1975 -400 1912 -175 
Q 1850 50 1862 362 
Q 1875 675 1850 1200 
L 2375 1200 
z
M 3550 3650 
Q 3850 3950 4025 4225 
L 2075 4225 
Q 1825 3925 1525 3650 
L 3550 3650 
z
M 800 -400 
Q 600 -300 300 -225 
Q 575 275 875 1150 
Q 1100 1050 1350 1000 
L 800 -400 
z
M 5050 1400 
Q 5700 800 6150 350 
Q 5950 200 5725 -25 
Q 5300 600 4750 1125 
Q 4875 1250 5050 1400 
z
M 3325 1375 
Q 3600 1075 3900 700 
Q 3675 600 3450 450 
Q 3225 825 2975 1150 
Q 3150 1275 3325 1375 
z
" transform="scale(0.015625)"/>
       <path id="SimHei-6d6a" d="M 3675 775 
Q 3750 450 3900 300 
Q 3650 100 3225 -187 
Q 2800 -475 2550 -650 
Q 2425 -450 2200 -225 
Q 2400 -50 2375 200 
L 2375 3325 
Q 2375 3875 2350 4350 
L 3775 4350 
Q 3575 4725 3300 5025 
Q 3575 5150 3750 5275 
Q 4075 4875 4250 4600 
Q 4075 4500 3850 4350 
L 5475 4350 
Q 5450 3950 5450 3050 
Q 5450 2175 5475 1875 
L 4025 1875 
Q 4175 1350 4475 950 
Q 5000 1300 5325 1675 
Q 5500 1500 5825 1325 
Q 5625 1225 5387 1062 
Q 5150 900 4800 625 
Q 5400 125 6150 0 
Q 5900 -250 5800 -550 
Q 4950 -225 4375 325 
Q 3800 875 3525 1875 
L 2850 1875 
L 2850 150 
Q 3300 425 3675 775 
z
M 4950 3300 
L 4950 3950 
L 2850 3950 
L 2850 3300 
L 4950 3300 
z
M 4950 2275 
L 4950 2900 
L 2850 2900 
L 2850 2275 
L 4950 2275 
z
M 1850 1350 
Q 1575 950 1275 425 
Q 975 -100 825 -500 
Q 525 -275 225 -75 
Q 500 175 875 737 
Q 1250 1300 1400 1725 
Q 1625 1500 1850 1350 
z
M 550 3300 
Q 1125 3050 1800 2650 
Q 1600 2450 1450 2200 
Q 950 2550 250 2875 
Q 400 3075 550 3300 
z
M 975 4875 
Q 1425 4575 2050 4150 
Q 1825 3975 1650 3700 
Q 1250 4100 575 4500 
Q 775 4675 975 4875 
z
" transform="scale(0.015625)"/>
       <path id="SimHei-8d39" d="M 2250 5225 
Q 2525 5175 2825 5150 
Q 2775 5025 2750 4675 
L 3625 4675 
Q 3625 4925 3600 5200 
L 4075 5200 
Q 4050 4925 4050 4675 
L 5675 4675 
Q 5650 4375 5650 4050 
Q 5650 3725 5675 3450 
L 4050 3450 
L 4050 3000 
L 6025 3000 
Q 6000 2575 5987 2300 
Q 5975 2025 5837 1925 
Q 5700 1825 5225 1725 
Q 5175 1975 5000 2225 
Q 5325 2225 5425 2262 
Q 5525 2300 5525 2625 
L 4050 2625 
L 4050 2050 
L 5100 2050 
L 5100 1175 
Q 5100 900 5125 525 
L 4600 525 
L 4600 1675 
L 1900 1675 
L 1900 350 
L 1400 350 
Q 1425 775 1425 1100 
L 1425 1725 
Q 1175 1575 600 1350 
Q 475 1600 300 1850 
Q 625 1875 1162 2087 
Q 1700 2300 2000 2625 
L 875 2625 
Q 975 3350 975 3825 
L 2300 3825 
L 2300 4300 
Q 1200 4300 850 4275 
L 850 4700 
Q 1225 4675 2300 4675 
Q 2300 4900 2250 5225 
z
M 3650 1300 
Q 3525 1025 3362 650 
Q 3200 275 2925 50 
Q 2650 -175 2150 -362 
Q 1650 -550 850 -625 
Q 775 -375 600 -100 
Q 1125 -100 1600 -12 
Q 2075 75 2487 375 
Q 2900 675 3050 1450 
Q 3300 1350 3650 1300 
z
M 3900 700 
Q 4400 500 4862 300 
Q 5325 100 5750 -100 
Q 5525 -375 5400 -575 
Q 4925 -325 4600 -162 
Q 4275 0 3625 250 
Q 3725 400 3900 700 
z
M 3600 2050 
L 3600 2625 
L 2625 2625 
Q 2325 2200 2050 2050 
L 3600 2050 
z
M 5150 3825 
L 5150 4300 
L 4050 4300 
L 4050 3825 
L 5150 3825 
z
M 3600 3825 
L 3600 4300 
L 2750 4300 
L 2750 3825 
L 3600 3825 
z
M 3600 3000 
L 3600 3450 
L 2750 3450 
Q 2725 3175 2700 3000 
L 3600 3000 
z
M 2200 3000 
Q 2275 3275 2275 3450 
L 1450 3450 
L 1425 3000 
L 2200 3000 
z
" transform="scale(0.015625)"/>
      </defs>
      <use xlink:href="#SimHei-7d27"/>
      <use xlink:href="#SimHei-6025" x="100"/>
      <use xlink:href="#SimHei-8d2d" x="200"/>
      <use xlink:href="#SimHei-7535" x="300"/>
      <use xlink:href="#SimHei-2f" x="400"/>
      <use xlink:href="#SimHei-6d6a" x="450"/>
      <use xlink:href="#SimHei-8d39" x="550"/>
     </g>
    </g>
   </g>
  </g>
 </g>
 <defs>
  <clipPath id="p883ca60c89">
   <rect x="52.1" y="20.101088" width="652.06" height="205.15375"/>
  </clipPath>
 </defs>
</svg>
