<?xml version="1.0" encoding="utf-8" standalone="no"?>
<!DOCTYPE svg PUBLIC "-//W3C//DTD SVG 1.1//EN"
  "http://www.w3.org/Graphics/SVG/1.1/DTD/svg11.dtd">
<svg xmlns:xlink="http://www.w3.org/1999/xlink" width="712.76pt" height="424.178754pt" viewBox="0 0 712.76 424.178754" xmlns="http://www.w3.org/2000/svg" version="1.1">
 <metadata>
  <rdf:RDF xmlns:dc="http://purl.org/dc/elements/1.1/" xmlns:cc="http://creativecommons.org/ns#" xmlns:rdf="http://www.w3.org/1999/02/22-rdf-syntax-ns#">
   <cc:Work>
    <dc:type rdf:resource="http://purl.org/dc/dcmitype/StillImage"/>
    <dc:date>2026-09-13T15:36:11.036325</dc:date>
    <dc:format>image/svg+xml</dc:format>
    <dc:creator>
     <cc:Agent>
      <dc:title>Matplotlib v3.11.1, https://matplotlib.org/</dc:title>
     </cc:Agent>
    </dc:creator>
   </cc:Work>
  </rdf:RDF>
 </metadata>
 <defs>
  <style type="text/css">*{stroke-linejoin: round; stroke-linecap: butt}</style>
 </defs>
 <g id="figure_1">
  <g id="patch_1">
   <path d="M 0 424.178754 
L 712.76 424.178754 
L 712.76 0 
L 0 0 
z
" style="fill: #ffffff"/>
  </g>
  <g id="axes_1">
   <g id="patch_2">
    <path d="M 34.2 384.978754 
L 705.56 384.978754 
L 705.56 8.716466 
L 34.2 8.716466 
z
" style="fill: #ffffff"/>
   </g>
   <g id="patch_3">
    <path d="M 64.716364 384.978754 
L 104.644316 384.978754 
L 104.644316 384.978754 
L 64.716364 384.978754 
z
" clip-path="url(#p0bb15c1c2d)" style="fill: #7e9f7e; opacity: 0.85; stroke: #ffffff; stroke-width: 1.5; stroke-linejoin: miter"/>
   </g>
   <g id="patch_4">
    <path d="M 121.756296 384.978754 
L 161.684248 384.978754 
L 161.684248 279.671909 
L 121.756296 279.671909 
z
" clip-path="url(#p0bb15c1c2d)" style="fill: #7e9f7e; opacity: 0.85; stroke: #ffffff; stroke-width: 1.5; stroke-linejoin: miter"/>
   </g>
   <g id="patch_5">
    <path d="M 178.796228 384.978754 
L 218.72418 384.978754 
L 218.72418 83.968923 
L 178.796228 83.968923 
z
" clip-path="url(#p0bb15c1c2d)" style="fill: #7e9f7e; opacity: 0.85; stroke: #ffffff; stroke-width: 1.5; stroke-linejoin: miter"/>
   </g>
   <g id="patch_6">
    <path d="M 235.83616 384.978754 
L 275.764112 384.978754 
L 275.764112 342.57644 
L 235.83616 342.57644 
z
" clip-path="url(#p0bb15c1c2d)" style="fill: #7e9f7e; opacity: 0.85; stroke: #ffffff; stroke-width: 1.5; stroke-linejoin: miter"/>
   </g>
   <g id="patch_7">
    <path d="M 292.876092 384.978754 
L 332.804044 384.978754 
L 332.804044 364.010577 
L 292.876092 364.010577 
z
" clip-path="url(#p0bb15c1c2d)" style="fill: #7e9f7e; opacity: 0.85; stroke: #ffffff; stroke-width: 1.5; stroke-linejoin: miter"/>
   </g>
   <g id="patch_8">
    <path d="M 349.916024 384.978754 
L 389.843976 384.978754 
L 389.843976 354.691387 
L 349.916024 354.691387 
z
" clip-path="url(#p0bb15c1c2d)" style="fill: #7e9f7e; opacity: 0.85; stroke: #ffffff; stroke-width: 1.5; stroke-linejoin: miter"/>
   </g>
   <g id="patch_9">
    <path d="M 406.955956 384.978754 
L 446.883908 384.978754 
L 446.883908 384.978754 
L 406.955956 384.978754 
z
" clip-path="url(#p0bb15c1c2d)" style="fill: #7e9f7e; opacity: 0.85; stroke: #ffffff; stroke-width: 1.5; stroke-linejoin: miter"/>
   </g>
   <g id="patch_10">
    <path d="M 463.995888 384.978754 
L 503.92384 384.978754 
L 503.92384 263.363327 
L 463.995888 263.363327 
z
" clip-path="url(#p0bb15c1c2d)" style="fill: #7e9f7e; opacity: 0.85; stroke: #ffffff; stroke-width: 1.5; stroke-linejoin: miter"/>
   </g>
   <g id="patch_11">
    <path d="M 521.03582 384.978754 
L 560.963772 384.978754 
L 560.963772 379.853199 
L 521.03582 379.853199 
z
" clip-path="url(#p0bb15c1c2d)" style="fill: #7e9f7e; opacity: 0.85; stroke: #ffffff; stroke-width: 1.5; stroke-linejoin: miter"/>
   </g>
   <g id="patch_12">
    <path d="M 578.075752 384.978754 
L 618.003704 384.978754 
L 618.003704 359.816941 
L 578.075752 359.816941 
z
" clip-path="url(#p0bb15c1c2d)" style="fill: #7e9f7e; opacity: 0.85; stroke: #ffffff; stroke-width: 1.5; stroke-linejoin: miter"/>
   </g>
   <g id="patch_13">
    <path d="M 635.115684 384.978754 
L 675.043636 384.978754 
L 675.043636 384.978754 
L 635.115684 384.978754 
z
" clip-path="url(#p0bb15c1c2d)" style="fill: #7e9f7e; opacity: 0.85; stroke: #ffffff; stroke-width: 1.5; stroke-linejoin: miter"/>
   </g>
   <g id="matplotlib.axis_1">
    <g id="xtick_1">
     <g id="line2d_1">
      <defs>
       <path id="m7abc4507b6" d="M 0 0 
L 0 3.5 
" style="stroke: #333333; stroke-width: 0.8"/>
      </defs>
      <g>
       <use xlink:href="#m7abc4507b6" x="84.68034" y="384.978754" style="fill: #333333; stroke: #333333; stroke-width: 0.8"/>
      </g>
     </g>
     <g id="text_1">
      <!-- 2月 -->
      <g style="fill: #333333" transform="translate(77.18034 400.572504) scale(0.1 -0.1)">
       <defs>
        <path id="SimHei-15" d="M 300 250 
Q 325 625 650 925 
Q 975 1225 1475 1862 
Q 1975 2500 2125 2850 
Q 2275 3200 2237 3450 
Q 2200 3700 2000 3862 
Q 1800 4025 1537 4000 
Q 1275 3975 1037 3800 
Q 800 3625 675 3275 
L 200 3350 
Q 400 3925 712 4187 
Q 1025 4450 1450 4475 
Q 1700 4500 1900 4462 
Q 2100 4425 2312 4287 
Q 2525 4150 2662 3875 
Q 2800 3600 2762 3212 
Q 2725 2825 2375 2287 
Q 2025 1750 1025 600 
L 2825 600 
L 2825 150 
L 300 150 
L 300 250 
z
" transform="scale(0.015625)"/>
        <path id="SimHei-1d3e" d="M 5250 4825 
Q 5200 4225 5200 3750 
L 5200 200 
Q 5200 -275 4950 -375 
Q 4700 -475 3975 -525 
Q 3925 -225 3750 50 
Q 4300 25 4512 50 
Q 4725 75 4725 400 
L 4725 1600 
L 1850 1600 
Q 1725 775 1450 225 
Q 1175 -325 900 -575 
Q 700 -400 400 -325 
Q 800 25 1037 512 
Q 1275 1000 1337 1475 
Q 1400 1950 1400 2525 
L 1400 3625 
Q 1400 4175 1375 4825 
L 5250 4825 
z
M 4725 3400 
L 4725 4450 
L 1875 4450 
L 1875 3400 
L 4725 3400 
z
M 4725 2000 
L 4725 3025 
L 1875 3025 
L 1875 2000 
L 4725 2000 
z
" transform="scale(0.015625)"/>
       </defs>
       <use xlink:href="#SimHei-15"/>
       <use xlink:href="#SimHei-1d3e" transform="translate(50 0)"/>
      </g>
     </g>
    </g>
    <g id="xtick_2">
     <g id="line2d_2">
      <g>
       <use xlink:href="#m7abc4507b6" x="141.720272" y="384.978754" style="fill: #333333; stroke: #333333; stroke-width: 0.8"/>
      </g>
     </g>
     <g id="text_2">
      <!-- 3月 -->
      <g style="fill: #333333" transform="translate(134.220272 400.572504) scale(0.1 -0.1)">
       <defs>
        <path id="SimHei-16" d="M 250 1225 
L 700 1300 
Q 800 975 1025 762 
Q 1250 550 1587 562 
Q 1925 575 2125 837 
Q 2325 1100 2300 1437 
Q 2275 1775 2037 1962 
Q 1800 2150 1275 2225 
L 1275 2550 
Q 1800 2600 2037 2825 
Q 2275 3050 2250 3412 
Q 2225 3775 1925 3937 
Q 1625 4100 1287 3975 
Q 950 3850 750 3275 
L 300 3350 
Q 450 3800 712 4100 
Q 975 4400 1425 4450 
Q 1875 4500 2212 4337 
Q 2550 4175 2687 3837 
Q 2825 3500 2725 3100 
Q 2625 2700 2150 2400 
Q 2500 2250 2687 1950 
Q 2875 1650 2812 1162 
Q 2750 675 2375 375 
Q 2000 75 1525 87 
Q 1050 100 700 387 
Q 350 675 250 1225 
z
" transform="scale(0.015625)"/>
       </defs>
       <use xlink:href="#SimHei-16"/>
       <use xlink:href="#SimHei-1d3e" transform="translate(50 0)"/>
      </g>
     </g>
    </g>
    <g id="xtick_3">
     <g id="line2d_3">
      <g>
       <use xlink:href="#m7abc4507b6" x="198.760204" y="384.978754" style="fill: #333333; stroke: #333333; stroke-width: 0.8"/>
      </g>
     </g>
     <g id="text_3">
      <!-- 4月 -->
      <g style="fill: #333333" transform="translate(191.260204 400.572504) scale(0.1 -0.1)">
       <defs>
        <path id="SimHei-17" d="M 2000 1100 
L 75 1100 
L 75 1525 
L 2100 4450 
L 2475 4450 
L 2475 1525 
L 3075 1525 
L 3075 1100 
L 2475 1100 
L 2475 150 
L 2000 150 
L 2000 1100 
z
M 2000 1525 
L 2000 3500 
L 600 1525 
L 2000 1525 
z
" transform="scale(0.015625)"/>
       </defs>
       <use xlink:href="#SimHei-17"/>
       <use xlink:href="#SimHei-1d3e" transform="translate(50 0)"/>
      </g>
     </g>
    </g>
    <g id="xtick_4">
     <g id="line2d_4">
      <g>
       <use xlink:href="#m7abc4507b6" x="255.800136" y="384.978754" style="fill: #333333; stroke: #333333; stroke-width: 0.8"/>
      </g>
     </g>
     <g id="text_4">
      <!-- 5月 -->
      <g style="fill: #333333" transform="translate(248.300136 400.572504) scale(0.1 -0.1)">
       <defs>
        <path id="SimHei-18" d="M 550 1325 
Q 725 650 1150 575 
Q 1575 500 1837 662 
Q 2100 825 2212 1087 
Q 2325 1350 2312 1675 
Q 2300 2000 2137 2225 
Q 1975 2450 1725 2525 
Q 1475 2600 1162 2525 
Q 850 2450 650 2175 
L 225 2225 
Q 275 2375 700 4375 
L 2675 4375 
L 2675 3925 
L 1075 3925 
Q 950 3250 825 2850 
Q 1200 3025 1525 3012 
Q 1850 3000 2150 2862 
Q 2450 2725 2587 2487 
Q 2725 2250 2787 2012 
Q 2850 1775 2837 1500 
Q 2825 1225 2725 937 
Q 2625 650 2425 462 
Q 2225 275 1937 162 
Q 1650 50 1275 75 
Q 900 100 562 350 
Q 225 600 100 1200 
L 550 1325 
z
" transform="scale(0.015625)"/>
       </defs>
       <use xlink:href="#SimHei-18"/>
       <use xlink:href="#SimHei-1d3e" transform="translate(50 0)"/>
      </g>
     </g>
    </g>
    <g id="xtick_5">
     <g id="line2d_5">
      <g>
       <use xlink:href="#m7abc4507b6" x="312.840068" y="384.978754" style="fill: #333333; stroke: #333333; stroke-width: 0.8"/>
      </g>
     </g>
     <g id="text_5">
      <!-- 6月 -->
      <g style="fill: #333333" transform="translate(305.340068 400.572504) scale(0.1 -0.1)">
       <defs>
        <path id="SimHei-19" d="M 250 1612 
Q 275 1975 387 2225 
Q 500 2475 725 2850 
L 1750 4450 
L 2325 4450 
L 1275 2800 
Q 1950 2975 2350 2750 
Q 2750 2525 2887 2237 
Q 3025 1950 3037 1612 
Q 3050 1275 2937 950 
Q 2825 625 2537 362 
Q 2250 100 1737 75 
Q 1225 50 862 262 
Q 500 475 362 862 
Q 225 1250 250 1612 
z
M 1025 787 
Q 1250 550 1625 525 
Q 2000 500 2250 775 
Q 2500 1050 2500 1575 
Q 2500 2100 2187 2300 
Q 1875 2500 1487 2450 
Q 1100 2400 925 2075 
Q 750 1750 775 1387 
Q 800 1025 1025 787 
z
" transform="scale(0.015625)"/>
       </defs>
       <use xlink:href="#SimHei-19"/>
       <use xlink:href="#SimHei-1d3e" transform="translate(50 0)"/>
      </g>
     </g>
    </g>
    <g id="xtick_6">
     <g id="line2d_6">
      <g>
       <use xlink:href="#m7abc4507b6" x="369.88" y="384.978754" style="fill: #333333; stroke: #333333; stroke-width: 0.8"/>
      </g>
     </g>
     <g id="text_6">
      <!-- 7月 -->
      <g style="fill: #333333" transform="translate(362.38 400.572504) scale(0.1 -0.1)">
       <defs>
        <path id="SimHei-1a" d="M 850 150 
Q 1300 2050 2425 3925 
L 275 3925 
L 275 4375 
L 2950 4375 
L 2950 3950 
Q 1775 2050 1400 150 
L 850 150 
z
" transform="scale(0.015625)"/>
       </defs>
       <use xlink:href="#SimHei-1a"/>
       <use xlink:href="#SimHei-1d3e" transform="translate(50 0)"/>
      </g>
     </g>
    </g>
    <g id="xtick_7">
     <g id="line2d_7">
      <g>
       <use xlink:href="#m7abc4507b6" x="426.919932" y="384.978754" style="fill: #333333; stroke: #333333; stroke-width: 0.8"/>
      </g>
     </g>
     <g id="text_7">
      <!-- 8月 -->
      <g style="fill: #333333" transform="translate(419.419932 400.572504) scale(0.1 -0.1)">
       <defs>
        <path id="SimHei-1b" d="M 175 1375 
Q 175 1675 325 1962 
Q 475 2250 825 2425 
Q 525 2600 425 2812 
Q 325 3025 312 3300 
Q 300 3575 387 3775 
Q 475 3975 650 4150 
Q 825 4325 1037 4387 
Q 1250 4450 1500 4450 
Q 1750 4450 1950 4400 
Q 2150 4350 2375 4187 
Q 2600 4025 2700 3725 
Q 2800 3425 2687 3025 
Q 2575 2625 2100 2400 
Q 2525 2275 2700 2012 
Q 2875 1750 2875 1375 
Q 2875 1000 2762 775 
Q 2650 550 2512 400 
Q 2375 250 2137 162 
Q 1900 75 1537 75 
Q 1175 75 912 162 
Q 650 250 475 425 
Q 300 600 237 837 
Q 175 1075 175 1375 
z
M 687 1400 
Q 675 1100 787 875 
Q 900 650 1200 587 
Q 1500 525 1825 600 
Q 2150 675 2275 950 
Q 2400 1225 2362 1500 
Q 2325 1775 2050 1962 
Q 1775 2150 1450 2125 
Q 1125 2100 912 1900 
Q 700 1700 687 1400 
z
M 775 3350 
Q 775 3100 950 2875 
Q 1125 2650 1500 2650 
Q 1875 2650 2062 2875 
Q 2250 3100 2237 3412 
Q 2225 3725 2012 3875 
Q 1800 4025 1437 4000 
Q 1075 3975 925 3787 
Q 775 3600 775 3350 
z
" transform="scale(0.015625)"/>
       </defs>
       <use xlink:href="#SimHei-1b"/>
       <use xlink:href="#SimHei-1d3e" transform="translate(50 0)"/>
      </g>
     </g>
    </g>
    <g id="xtick_8">
     <g id="line2d_8">
      <g>
       <use xlink:href="#m7abc4507b6" x="483.959864" y="384.978754" style="fill: #333333; stroke: #333333; stroke-width: 0.8"/>
      </g>
     </g>
     <g id="text_8">
      <!-- 9月 -->
      <g style="fill: #333333" transform="translate(476.459864 400.572504) scale(0.1 -0.1)">
       <defs>
        <path id="SimHei-1c" d="M 800 75 
Q 1350 1000 1700 1750 
Q 1075 1650 662 1912 
Q 250 2175 162 2625 
Q 75 3075 175 3437 
Q 275 3800 487 4037 
Q 700 4275 1000 4375 
Q 1300 4475 1537 4475 
Q 1775 4475 2025 4375 
Q 2275 4275 2475 4075 
Q 2675 3875 2750 3662 
Q 2825 3450 2825 3112 
Q 2825 2775 2575 2250 
Q 2325 1725 1350 75 
L 800 75 
z
M 662 2875 
Q 700 2550 937 2337 
Q 1175 2125 1450 2150 
Q 1725 2175 1887 2300 
Q 2050 2425 2200 2725 
Q 2300 3100 2250 3362 
Q 2200 3625 1987 3800 
Q 1775 3975 1525 3975 
Q 1375 4000 1137 3900 
Q 900 3800 762 3500 
Q 625 3200 662 2875 
z
" transform="scale(0.015625)"/>
       </defs>
       <use xlink:href="#SimHei-1c"/>
       <use xlink:href="#SimHei-1d3e" transform="translate(50 0)"/>
      </g>
     </g>
    </g>
    <g id="xtick_9">
     <g id="line2d_9">
      <g>
       <use xlink:href="#m7abc4507b6" x="540.999796" y="384.978754" style="fill: #333333; stroke: #333333; stroke-width: 0.8"/>
      </g>
     </g>
     <g id="text_9">
      <!-- 10月 -->
      <g style="fill: #333333" transform="translate(530.999796 400.572504) scale(0.1 -0.1)">
       <defs>
        <path id="SimHei-14" d="M 1400 3600 
Q 1075 3275 575 2975 
L 575 3450 
Q 1200 3875 1600 4450 
L 1900 4450 
L 1900 150 
L 1400 150 
L 1400 3600 
z
" transform="scale(0.015625)"/>
        <path id="SimHei-13" d="M 225 2537 
Q 250 3200 412 3587 
Q 575 3975 875 4225 
Q 1175 4475 1612 4475 
Q 2050 4475 2375 4112 
Q 2700 3750 2800 3200 
Q 2900 2650 2862 1937 
Q 2825 1225 2612 775 
Q 2400 325 1975 150 
Q 1550 -25 1125 187 
Q 700 400 525 750 
Q 350 1100 275 1487 
Q 200 1875 225 2537 
z
M 750 2687 
Q 675 2000 800 1462 
Q 925 925 1212 700 
Q 1500 475 1800 612 
Q 2100 750 2237 1162 
Q 2375 1575 2375 2062 
Q 2375 2550 2337 2950 
Q 2300 3350 2112 3675 
Q 1925 4000 1612 4012 
Q 1300 4025 1062 3700 
Q 825 3375 750 2687 
z
" transform="scale(0.015625)"/>
       </defs>
       <use xlink:href="#SimHei-14"/>
       <use xlink:href="#SimHei-13" transform="translate(50 0)"/>
       <use xlink:href="#SimHei-1d3e" transform="translate(100 0)"/>
      </g>
     </g>
    </g>
    <g id="xtick_10">
     <g id="line2d_10">
      <g>
       <use xlink:href="#m7abc4507b6" x="598.039728" y="384.978754" style="fill: #333333; stroke: #333333; stroke-width: 0.8"/>
      </g>
     </g>
     <g id="text_10">
      <!-- 11月 -->
      <g style="fill: #333333" transform="translate(588.039728 400.572504) scale(0.1 -0.1)">
       <use xlink:href="#SimHei-14"/>
       <use xlink:href="#SimHei-14" transform="translate(50 0)"/>
       <use xlink:href="#SimHei-1d3e" transform="translate(100 0)"/>
      </g>
     </g>
    </g>
    <g id="xtick_11">
     <g id="line2d_11">
      <g>
       <use xlink:href="#m7abc4507b6" x="655.07966" y="384.978754" style="fill: #333333; stroke: #333333; stroke-width: 0.8"/>
      </g>
     </g>
     <g id="text_11">
      <!-- 12月 -->
      <g style="fill: #333333" transform="translate(645.07966 400.572504) scale(0.1 -0.1)">
       <use xlink:href="#SimHei-14"/>
       <use xlink:href="#SimHei-15" transform="translate(50 0)"/>
       <use xlink:href="#SimHei-1d3e" transform="translate(100 0)"/>
      </g>
     </g>
    </g>
    <g id="text_12">
     <!-- 月份 -->
     <g style="fill: #333333" transform="translate(358.88 415.431879) scale(0.11 -0.11)">
      <defs>
       <path id="SimHei-533" d="M 4750 5100 
Q 4875 4375 5250 3650 
Q 5625 2925 6200 2450 
Q 6025 2375 5775 2075 
Q 5600 2275 5350 2575 
Q 5300 2275 5275 1312 
Q 5250 350 5187 25 
Q 5125 -300 4850 -400 
Q 4575 -500 4075 -550 
Q 4000 -250 3875 0 
Q 4400 -25 4575 25 
Q 4750 75 4775 587 
Q 4800 1100 4825 2250 
L 3700 2250 
Q 3675 1300 3425 650 
Q 3175 0 2375 -625 
Q 2175 -350 2000 -225 
Q 2750 225 2987 800 
Q 3225 1375 3225 2250 
Q 3000 2250 2675 2225 
L 2675 2575 
Q 2475 2300 2150 1950 
Q 2000 2150 1750 2300 
Q 2875 3275 3225 4875 
Q 3450 4775 3750 4675 
Q 3625 4400 3425 3887 
Q 3225 3375 2775 2700 
Q 3050 2675 3400 2675 
L 5300 2675 
Q 4575 3625 4275 4975 
Q 4575 5025 4750 5100 
z
M 225 2525 
Q 575 2875 1025 3687 
Q 1475 4500 1650 5225 
Q 1975 5075 2200 4975 
Q 2050 4750 1600 3775 
L 1600 625 
Q 1600 75 1625 -575 
L 1100 -575 
Q 1125 50 1125 625 
L 1125 2925 
Q 775 2400 575 2175 
Q 425 2350 225 2525 
z
" transform="scale(0.015625)"/>
      </defs>
      <use xlink:href="#SimHei-1d3e"/>
      <use xlink:href="#SimHei-533" transform="translate(100 0)"/>
     </g>
    </g>
   </g>
   <g id="matplotlib.axis_2">
    <g id="ytick_1">
     <g id="line2d_12">
      <path d="M 34.2 384.978754 
L 705.56 384.978754 
" clip-path="url(#p0bb15c1c2d)" style="fill: none; stroke-dasharray: 1.85,0.8; stroke-dashoffset: 0; stroke: #e0e0e0; stroke-opacity: 0.7; stroke-width: 0.5"/>
     </g>
     <g id="line2d_13">
      <defs>
       <path id="m838a7866bb" d="M 0 0 
L -3.5 0 
" style="stroke: #333333; stroke-width: 0.8"/>
      </defs>
      <g>
       <use xlink:href="#m838a7866bb" x="34.2" y="384.978754" style="fill: #333333; stroke: #333333; stroke-width: 0.8"/>
      </g>
     </g>
     <g id="text_13">
      <!-- 0 -->
      <g style="fill: #333333" transform="translate(22.2 389.275629) scale(0.1 -0.1)">
       <use xlink:href="#SimHei-13"/>
      </g>
     </g>
    </g>
    <g id="ytick_2">
     <g id="line2d_14">
      <path d="M 34.2 338.382805 
L 705.56 338.382805 
" clip-path="url(#p0bb15c1c2d)" style="fill: none; stroke-dasharray: 1.85,0.8; stroke-dashoffset: 0; stroke: #e0e0e0; stroke-opacity: 0.7; stroke-width: 0.5"/>
     </g>
     <g id="line2d_15">
      <g>
       <use xlink:href="#m838a7866bb" x="34.2" y="338.382805" style="fill: #333333; stroke: #333333; stroke-width: 0.8"/>
      </g>
     </g>
     <g id="text_14">
      <!-- 1 -->
      <g style="fill: #333333" transform="translate(22.2 342.67968) scale(0.1 -0.1)">
       <use xlink:href="#SimHei-14"/>
      </g>
     </g>
    </g>
    <g id="ytick_3">
     <g id="line2d_16">
      <path d="M 34.2 291.786856 
L 705.56 291.786856 
" clip-path="url(#p0bb15c1c2d)" style="fill: none; stroke-dasharray: 1.85,0.8; stroke-dashoffset: 0; stroke: #e0e0e0; stroke-opacity: 0.7; stroke-width: 0.5"/>
     </g>
     <g id="line2d_17">
      <g>
       <use xlink:href="#m838a7866bb" x="34.2" y="291.786856" style="fill: #333333; stroke: #333333; stroke-width: 0.8"/>
      </g>
     </g>
     <g id="text_15">
      <!-- 2 -->
      <g style="fill: #333333" transform="translate(22.2 296.083731) scale(0.1 -0.1)">
       <use xlink:href="#SimHei-15"/>
      </g>
     </g>
    </g>
    <g id="ytick_4">
     <g id="line2d_18">
      <path d="M 34.2 245.190907 
L 705.56 245.190907 
" clip-path="url(#p0bb15c1c2d)" style="fill: none; stroke-dasharray: 1.85,0.8; stroke-dashoffset: 0; stroke: #e0e0e0; stroke-opacity: 0.7; stroke-width: 0.5"/>
     </g>
     <g id="line2d_19">
      <g>
       <use xlink:href="#m838a7866bb" x="34.2" y="245.190907" style="fill: #333333; stroke: #333333; stroke-width: 0.8"/>
      </g>
     </g>
     <g id="text_16">
      <!-- 3 -->
      <g style="fill: #333333" transform="translate(22.2 249.487782) scale(0.1 -0.1)">
       <use xlink:href="#SimHei-16"/>
      </g>
     </g>
    </g>
    <g id="ytick_5">
     <g id="line2d_20">
      <path d="M 34.2 198.594958 
L 705.56 198.594958 
" clip-path="url(#p0bb15c1c2d)" style="fill: none; stroke-dasharray: 1.85,0.8; stroke-dashoffset: 0; stroke: #e0e0e0; stroke-opacity: 0.7; stroke-width: 0.5"/>
     </g>
     <g id="line2d_21">
      <g>
       <use xlink:href="#m838a7866bb" x="34.2" y="198.594958" style="fill: #333333; stroke: #333333; stroke-width: 0.8"/>
      </g>
     </g>
     <g id="text_17">
      <!-- 4 -->
      <g style="fill: #333333" transform="translate(22.2 202.891833) scale(0.1 -0.1)">
       <use xlink:href="#SimHei-17"/>
      </g>
     </g>
    </g>
    <g id="ytick_6">
     <g id="line2d_22">
      <path d="M 34.2 151.999009 
L 705.56 151.999009 
" clip-path="url(#p0bb15c1c2d)" style="fill: none; stroke-dasharray: 1.85,0.8; stroke-dashoffset: 0; stroke: #e0e0e0; stroke-opacity: 0.7; stroke-width: 0.5"/>
     </g>
     <g id="line2d_23">
      <g>
       <use xlink:href="#m838a7866bb" x="34.2" y="151.999009" style="fill: #333333; stroke: #333333; stroke-width: 0.8"/>
      </g>
     </g>
     <g id="text_18">
      <!-- 5 -->
      <g style="fill: #333333" transform="translate(22.2 156.295884) scale(0.1 -0.1)">
       <use xlink:href="#SimHei-18"/>
      </g>
     </g>
    </g>
    <g id="ytick_7">
     <g id="line2d_24">
      <path d="M 34.2 105.40306 
L 705.56 105.40306 
" clip-path="url(#p0bb15c1c2d)" style="fill: none; stroke-dasharray: 1.85,0.8; stroke-dashoffset: 0; stroke: #e0e0e0; stroke-opacity: 0.7; stroke-width: 0.5"/>
     </g>
     <g id="line2d_25">
      <g>
       <use xlink:href="#m838a7866bb" x="34.2" y="105.40306" style="fill: #333333; stroke: #333333; stroke-width: 0.8"/>
      </g>
     </g>
     <g id="text_19">
      <!-- 6 -->
      <g style="fill: #333333" transform="translate(22.2 109.699935) scale(0.1 -0.1)">
       <use xlink:href="#SimHei-19"/>
      </g>
     </g>
    </g>
    <g id="ytick_8">
     <g id="line2d_26">
      <path d="M 34.2 58.807111 
L 705.56 58.807111 
" clip-path="url(#p0bb15c1c2d)" style="fill: none; stroke-dasharray: 1.85,0.8; stroke-dashoffset: 0; stroke: #e0e0e0; stroke-opacity: 0.7; stroke-width: 0.5"/>
     </g>
     <g id="line2d_27">
      <g>
       <use xlink:href="#m838a7866bb" x="34.2" y="58.807111" style="fill: #333333; stroke: #333333; stroke-width: 0.8"/>
      </g>
     </g>
     <g id="text_20">
      <!-- 7 -->
      <g style="fill: #333333" transform="translate(22.2 63.103986) scale(0.1 -0.1)">
       <use xlink:href="#SimHei-1a"/>
      </g>
     </g>
    </g>
    <g id="ytick_9">
     <g id="line2d_28">
      <path d="M 34.2 12.211162 
L 705.56 12.211162 
" clip-path="url(#p0bb15c1c2d)" style="fill: none; stroke-dasharray: 1.85,0.8; stroke-dashoffset: 0; stroke: #e0e0e0; stroke-opacity: 0.7; stroke-width: 0.5"/>
     </g>
     <g id="line2d_29">
      <g>
       <use xlink:href="#m838a7866bb" x="34.2" y="12.211162" style="fill: #333333; stroke: #333333; stroke-width: 0.8"/>
      </g>
     </g>
     <g id="text_21">
      <!-- 8 -->
      <g style="fill: #333333" transform="translate(22.2 16.508037) scale(0.1 -0.1)">
       <use xlink:href="#SimHei-1b"/>
      </g>
     </g>
    </g>
    <g id="text_22">
     <!-- 调整购电量 (万kWh) -->
     <g style="fill: #333333" transform="translate(16.653125 246.34761) rotate(-90) scale(0.11 -0.11)">
      <defs>
       <path id="SimHei-4239" d="M 5950 200 
Q 5975 -300 5700 -437 
Q 5425 -575 4900 -650 
Q 4825 -350 4700 -50 
Q 5200 -75 5337 0 
Q 5475 75 5500 300 
L 5500 4525 
L 3075 4525 
L 3075 2275 
Q 3075 1225 2900 612 
Q 2725 0 2275 -650 
Q 2125 -450 1825 -300 
Q 2150 75 2312 437 
Q 2475 800 2550 1212 
Q 2625 1625 2625 2925 
Q 2625 4250 2600 4900 
L 5975 4900 
Q 5950 4525 5950 3900 
L 5950 200 
z
M 5125 1825 
Q 5100 1475 5100 1175 
Q 5100 875 5125 425 
L 3425 425 
Q 3450 875 3450 1175 
Q 3450 1475 3425 1825 
L 5125 1825 
z
M 2125 1600 
Q 2225 1375 2400 1200 
Q 2075 875 1875 650 
Q 1675 425 1325 50 
Q 1150 250 1000 400 
Q 1175 600 1175 825 
L 1175 2825 
L 950 2825 
Q 775 2825 300 2800 
L 300 3250 
Q 775 3225 950 3225 
L 1650 3225 
Q 1625 2775 1625 2225 
L 1625 1050 
Q 1750 1150 2125 1600 
z
M 4050 3675 
Q 4050 3975 4025 4300 
L 4500 4300 
Q 4475 4000 4475 3675 
Q 4750 3675 5125 3700 
L 5125 3275 
Q 4750 3300 4475 3300 
L 4475 2675 
Q 4925 2675 5225 2700 
L 5225 2250 
Q 4825 2275 4300 2275 
Q 3775 2275 3350 2250 
L 3350 2700 
Q 3775 2675 4050 2675 
L 4050 3300 
Q 3725 3300 3375 3275 
L 3375 3700 
Q 3750 3675 4050 3675 
z
M 4675 775 
L 4675 1475 
L 3875 1475 
L 3875 775 
L 4675 775 
z
M 1250 5025 
Q 1525 4700 1975 4100 
Q 1750 3975 1575 3775 
Q 1075 4525 875 4725 
Q 1075 4850 1250 5025 
z
" transform="scale(0.015625)"/>
       <path id="SimHei-1baa" d="M 2400 2825 
Q 2700 2650 3050 2300 
L 2725 1975 
Q 2475 2275 2175 2500 
L 2175 1875 
L 1700 1875 
L 1700 2525 
Q 1425 2250 1200 2100 
Q 975 1950 550 1650 
Q 450 1875 200 2025 
Q 525 2150 862 2350 
Q 1200 2550 1450 2825 
L 525 2825 
Q 550 3125 550 3375 
Q 550 3650 525 3900 
L 1700 3900 
L 1700 4250 
Q 750 4250 375 4225 
L 375 4625 
Q 750 4600 1700 4600 
Q 1700 4875 1675 5175 
L 2200 5175 
Q 2175 4875 2175 4600 
Q 3050 4600 3425 4625 
L 3425 4225 
Q 3050 4250 2175 4250 
L 2175 3900 
L 3275 3900 
Q 3250 3650 3250 3375 
Q 3250 3125 3275 2825 
L 2400 2825 
z
M 4675 1675 
Q 5050 1675 5475 1700 
L 5475 1300 
Q 5050 1325 3425 1325 
L 3425 850 
Q 4925 850 5300 875 
L 5300 475 
Q 4925 500 3425 500 
L 3425 -50 
L 5175 -50 
Q 5550 -50 6025 -25 
L 6025 -425 
Q 5550 -400 5200 -400 
L 1200 -400 
Q 850 -400 375 -425 
L 375 -25 
Q 875 -50 1550 -50 
Q 1550 650 1525 950 
L 2050 950 
Q 2025 725 2025 -50 
L 2975 -50 
L 2975 1325 
Q 1350 1325 950 1300 
L 950 1700 
Q 1350 1675 1700 1675 
L 4675 1675 
z
M 3700 3225 
Q 3525 3350 3325 3450 
Q 3675 3825 3900 4375 
Q 4125 4925 4175 5200 
Q 4375 5125 4725 5025 
Q 4625 4925 4375 4425 
L 5425 4425 
Q 5725 4425 6100 4450 
L 6100 4050 
Q 5750 4075 5625 4075 
Q 5475 3275 4975 2725 
Q 5425 2425 6025 2350 
Q 5875 2175 5800 1875 
Q 5450 1975 5187 2112 
Q 4925 2250 4700 2450 
Q 4250 2125 3725 1875 
Q 3625 2075 3400 2275 
Q 3950 2400 4375 2725 
Q 4175 2950 3875 3450 
L 3700 3225 
z
M 4100 3825 
Q 4425 3250 4700 3000 
Q 5025 3425 5150 4075 
L 4250 4075 
L 4100 3825 
z
M 1700 3175 
L 1700 3550 
L 1000 3550 
L 1000 3175 
L 1700 3175 
z
M 2825 3175 
L 2825 3550 
L 2175 3550 
L 2175 3175 
L 2825 3175 
z
" transform="scale(0.015625)"/>
       <path id="SimHei-4363" d="M 5850 250 
Q 5800 -250 5525 -375 
Q 5250 -500 4675 -575 
Q 4625 -275 4450 -25 
Q 4950 -50 5150 25 
Q 5350 100 5375 325 
L 5425 3750 
L 3675 3750 
Q 3450 3250 3175 2800 
Q 3025 2925 2775 3025 
Q 3100 3475 3350 4137 
Q 3600 4800 3675 5200 
Q 3975 5075 4200 5000 
Q 4075 4800 3825 4175 
L 5925 4175 
Q 5900 3750 5900 3075 
L 5850 250 
z
M 2275 1200 
L 2275 4375 
L 975 4375 
L 975 1050 
L 500 1050 
Q 525 1625 525 2925 
Q 525 4225 500 4775 
L 2725 4775 
Q 2700 4225 2700 3000 
Q 2700 1800 2725 1200 
L 2275 1200 
z
M 200 -225 
Q 650 100 900 525 
Q 1150 950 1262 1450 
Q 1375 1950 1375 2575 
Q 1375 3200 1350 3875 
Q 1625 3825 1900 3825 
Q 1825 3425 1825 2825 
Q 1825 2250 1750 1650 
Q 1675 1050 1412 512 
Q 1150 -25 600 -575 
Q 375 -325 200 -225 
z
M 4725 2325 
Q 5000 1475 5175 900 
Q 4900 800 4700 725 
Q 4650 975 4600 1150 
Q 3600 1075 3200 875 
Q 3125 1125 2975 1400 
Q 3175 1500 3387 1937 
Q 3600 2375 3750 3175 
Q 4050 3025 4275 2975 
Q 4125 2700 3925 2237 
Q 3725 1775 3550 1450 
Q 4075 1500 4500 1525 
Q 4450 1750 4300 2200 
Q 4425 2225 4725 2325 
z
M 2525 -450 
Q 2275 -25 1650 600 
Q 1850 800 1975 950 
Q 2300 700 2925 -100 
Q 2725 -225 2525 -450 
z
" transform="scale(0.015625)"/>
       <path id="SimHei-2b6b" d="M 6150 325 
Q 5975 -250 5825 -412 
Q 5675 -575 5325 -575 
L 3375 -575 
Q 2700 -600 2675 100 
L 2675 975 
L 1225 975 
L 1225 500 
L 650 500 
Q 675 750 675 2225 
Q 675 3700 650 4150 
L 2675 4150 
Q 2675 4825 2650 5200 
L 3200 5200 
Q 3175 4875 3175 4150 
L 5200 4150 
Q 5175 3775 5175 2600 
Q 5175 1450 5200 975 
L 3175 975 
L 3175 300 
Q 3175 -150 3650 -150 
L 4975 -150 
Q 5375 -150 5450 25 
Q 5525 200 5575 575 
Q 5825 400 6150 325 
z
M 4675 1400 
L 4675 2400 
L 3175 2400 
L 3175 1400 
L 4675 1400 
z
M 2675 1400 
L 2675 2400 
L 1225 2400 
L 1225 1400 
L 2675 1400 
z
M 4675 2800 
L 4675 3725 
L 3175 3725 
L 3175 2800 
L 4675 2800 
z
M 2675 2800 
L 2675 3725 
L 1225 3725 
L 1225 2800 
L 2675 2800 
z
" transform="scale(0.015625)"/>
       <path id="SimHei-4805" d="M 5250 2500 
Q 5225 2200 5225 1700 
Q 5225 1225 5250 950 
L 3425 950 
L 3425 625 
L 4575 625 
Q 5000 625 5375 650 
L 5375 275 
Q 5025 300 4575 300 
L 3425 300 
L 3425 -75 
L 5125 -75 
Q 5525 -75 5925 -50 
L 5925 -425 
Q 5525 -400 5125 -400 
L 1275 -400 
Q 900 -400 475 -425 
L 475 -50 
Q 925 -50 1275 -75 
L 2975 -75 
L 2975 300 
L 1725 300 
Q 1350 300 975 250 
L 975 650 
Q 1375 625 1725 625 
L 2975 625 
L 2975 950 
L 1150 950 
Q 1175 1375 1175 1775 
Q 1175 2175 1150 2500 
L 5250 2500 
z
M 5200 4950 
Q 5175 4575 5175 4250 
Q 5175 3925 5200 3400 
L 1200 3400 
Q 1225 3925 1225 4250 
Q 1225 4575 1200 4950 
L 5200 4950 
z
M 4900 3100 
Q 5500 3125 6000 3150 
L 6000 2750 
Q 5500 2775 4925 2775 
L 1650 2775 
Q 975 2775 325 2750 
L 325 3150 
Q 975 3125 1650 3100 
L 4900 3100 
z
M 4725 3700 
L 4725 4025 
L 1675 4025 
L 1675 3700 
L 4725 3700 
z
M 4725 4350 
L 4725 4650 
L 1675 4650 
L 1675 4350 
L 4725 4350 
z
M 4750 1875 
L 4750 2175 
L 3425 2175 
L 3425 1875 
L 4750 1875 
z
M 2975 1875 
L 2975 2175 
L 1650 2175 
L 1650 1875 
L 2975 1875 
z
M 2975 1275 
L 2975 1550 
L 1650 1550 
L 1650 1275 
L 2975 1275 
z
M 4750 1275 
L 4750 1550 
L 3425 1550 
L 3425 1275 
L 4750 1275 
z
" transform="scale(0.015625)"/>
       <path id="SimHei-3" transform="scale(0.015625)"/>
       <path id="SimHei-b" d="M 2975 -200 
L 2700 -475 
Q 2075 125 1762 775 
Q 1450 1425 1450 2250 
Q 1450 3075 1762 3725 
Q 2075 4375 2700 5000 
L 2975 4725 
Q 2400 4175 2112 3587 
Q 1825 3000 1825 2250 
Q 1825 1500 2112 912 
Q 2400 325 2975 -200 
z
" transform="scale(0.015625)"/>
       <path id="SimHei-43d" d="M 3650 -550 
Q 3550 -175 3400 25 
Q 3925 0 4137 50 
Q 4350 100 4400 225 
Q 4450 350 4487 812 
Q 4525 1275 4600 2625 
L 2675 2625 
Q 2350 550 900 -600 
Q 675 -325 400 -250 
Q 1125 200 1700 1237 
Q 2275 2275 2275 4250 
L 1525 4250 
Q 975 4250 550 4225 
L 550 4700 
Q 950 4675 1550 4675 
L 4950 4675 
Q 5500 4675 5950 4700 
L 5950 4225 
Q 5500 4250 4950 4250 
L 2800 4250 
Q 2775 3625 2725 3075 
L 5150 3075 
Q 5000 775 4950 287 
Q 4900 -200 4550 -350 
Q 4200 -500 3650 -550 
z
" transform="scale(0.015625)"/>
       <path id="SimHei-4e" d="M 2925 125 
L 2350 125 
L 1450 1650 
L 875 1100 
L 875 125 
L 375 125 
L 375 4400 
L 875 4400 
L 875 1675 
L 2125 2925 
L 2750 2925 
L 1775 1975 
L 2925 125 
z
" transform="scale(0.015625)"/>
       <path id="SimHei-3a" d="M 3075 4400 
L 2525 75 
L 2025 75 
L 1575 3275 
L 1525 3275 
L 1075 75 
L 575 75 
L 25 4400 
L 575 4400 
L 850 1675 
L 900 1675 
L 1275 4400 
L 1825 4400 
L 2200 1675 
L 2250 1675 
L 2525 4400 
L 3075 4400 
z
" transform="scale(0.015625)"/>
       <path id="SimHei-4b" d="M 2800 125 
L 2300 125 
L 2300 1925 
Q 2300 2225 2150 2400 
Q 2000 2575 1750 2575 
Q 1425 2575 1137 2237 
Q 850 1900 850 1400 
L 850 125 
L 350 125 
L 350 4400 
L 850 4400 
L 850 2400 
Q 1050 2675 1287 2825 
Q 1525 2975 1900 2975 
Q 2350 2975 2575 2725 
Q 2800 2475 2800 2100 
L 2800 125 
z
" transform="scale(0.015625)"/>
       <path id="SimHei-c" d="M 1675 2250 
Q 1675 1425 1362 775 
Q 1050 125 425 -475 
L 150 -200 
Q 725 325 1012 912 
Q 1300 1500 1300 2250 
Q 1300 3000 1012 3587 
Q 725 4175 150 4725 
L 425 5000 
Q 1050 4375 1362 3725 
Q 1675 3075 1675 2250 
z
" transform="scale(0.015625)"/>
      </defs>
      <use xlink:href="#SimHei-4239"/>
      <use xlink:href="#SimHei-1baa" transform="translate(100 0)"/>
      <use xlink:href="#SimHei-4363" transform="translate(200 0)"/>
      <use xlink:href="#SimHei-2b6b" transform="translate(300 0)"/>
      <use xlink:href="#SimHei-4805" transform="translate(400 0)"/>
      <use xlink:href="#SimHei-3" transform="translate(500 0)"/>
      <use xlink:href="#SimHei-b" transform="translate(550 0)"/>
      <use xlink:href="#SimHei-43d" transform="translate(600 0)"/>
      <use xlink:href="#SimHei-4e" transform="translate(700 0)"/>
      <use xlink:href="#SimHei-3a" transform="translate(750 0)"/>
      <use xlink:href="#SimHei-4b" transform="translate(800 0)"/>
      <use xlink:href="#SimHei-c" transform="translate(850 0)"/>
     </g>
    </g>
   </g>
   <g id="patch_14">
    <path d="M 34.2 384.978754 
L 34.2 8.716466 
" style="fill: none; stroke: #333333; stroke-width: 0.8; stroke-linejoin: miter; stroke-linecap: square"/>
   </g>
   <g id="patch_15">
    <path d="M 34.2 384.978754 
L 705.56 384.978754 
" style="fill: none; stroke: #333333; stroke-width: 0.8; stroke-linejoin: miter; stroke-linecap: square"/>
   </g>
   <g id="text_23">
    <!-- 2.26 -->
    <g style="fill: #333333" transform="translate(131.720272 264.286874) scale(0.1 -0.1)">
     <defs>
      <path id="SimHei-11" d="M 1075 125 
L 500 125 
L 500 675 
L 1075 675 
L 1075 125 
z
" transform="scale(0.015625)"/>
     </defs>
     <use xlink:href="#SimHei-15"/>
     <use xlink:href="#SimHei-11" transform="translate(50 0)"/>
     <use xlink:href="#SimHei-15" transform="translate(100 0)"/>
     <use xlink:href="#SimHei-19" transform="translate(150 0)"/>
    </g>
   </g>
   <g id="text_24">
    <!-- 6.46 -->
    <g style="fill: #333333" transform="translate(188.760204 68.583889) scale(0.1 -0.1)">
     <use xlink:href="#SimHei-19"/>
     <use xlink:href="#SimHei-11" transform="translate(50 0)"/>
     <use xlink:href="#SimHei-17" transform="translate(100 0)"/>
     <use xlink:href="#SimHei-19" transform="translate(150 0)"/>
    </g>
   </g>
   <g id="text_25">
    <!-- 0.91 -->
    <g style="fill: #333333" transform="translate(245.800136 327.191406) scale(0.1 -0.1)">
     <use xlink:href="#SimHei-13"/>
     <use xlink:href="#SimHei-11" transform="translate(50 0)"/>
     <use xlink:href="#SimHei-1c" transform="translate(100 0)"/>
     <use xlink:href="#SimHei-14" transform="translate(150 0)"/>
    </g>
   </g>
   <g id="text_26">
    <!-- 0.45 -->
    <g style="fill: #333333" transform="translate(302.840068 348.625542) scale(0.1 -0.1)">
     <use xlink:href="#SimHei-13"/>
     <use xlink:href="#SimHei-11" transform="translate(50 0)"/>
     <use xlink:href="#SimHei-17" transform="translate(100 0)"/>
     <use xlink:href="#SimHei-18" transform="translate(150 0)"/>
    </g>
   </g>
   <g id="text_27">
    <!-- 0.65 -->
    <g style="fill: #333333" transform="translate(359.88 339.306352) scale(0.1 -0.1)">
     <use xlink:href="#SimHei-13"/>
     <use xlink:href="#SimHei-11" transform="translate(50 0)"/>
     <use xlink:href="#SimHei-19" transform="translate(100 0)"/>
     <use xlink:href="#SimHei-18" transform="translate(150 0)"/>
    </g>
   </g>
   <g id="text_28">
    <!-- 2.61 -->
    <g style="fill: #333333" transform="translate(473.959864 247.978292) scale(0.1 -0.1)">
     <use xlink:href="#SimHei-15"/>
     <use xlink:href="#SimHei-11" transform="translate(50 0)"/>
     <use xlink:href="#SimHei-19" transform="translate(100 0)"/>
     <use xlink:href="#SimHei-14" transform="translate(150 0)"/>
    </g>
   </g>
   <g id="text_29">
    <!-- 0.11 -->
    <g style="fill: #333333" transform="translate(530.999796 364.468165) scale(0.1 -0.1)">
     <use xlink:href="#SimHei-13"/>
     <use xlink:href="#SimHei-11" transform="translate(50 0)"/>
     <use xlink:href="#SimHei-14" transform="translate(100 0)"/>
     <use xlink:href="#SimHei-14" transform="translate(150 0)"/>
    </g>
   </g>
   <g id="text_30">
    <!-- 0.54 -->
    <g style="fill: #333333" transform="translate(588.039728 344.431907) scale(0.1 -0.1)">
     <use xlink:href="#SimHei-13"/>
     <use xlink:href="#SimHei-11" transform="translate(50 0)"/>
     <use xlink:href="#SimHei-18" transform="translate(100 0)"/>
     <use xlink:href="#SimHei-17" transform="translate(150 0)"/>
    </g>
   </g>
   <g id="text_31">
    <!-- 全年总调整购电量: 13.99 万kWh -->
    <g style="fill: #3d5a80" transform="translate(547.1328 36.12333) scale(0.1 -0.1)">
     <defs>
      <path id="SimHei-79e" d="M 3475 4825 
Q 4350 3425 6125 3025 
Q 5900 2750 5825 2450 
Q 5325 2650 4975 2875 
L 4975 2475 
Q 4700 2500 4100 2500 
L 3500 2500 
L 3500 1500 
L 4450 1500 
Q 4975 1500 5300 1525 
L 5300 1075 
Q 4975 1100 4450 1100 
L 3500 1100 
L 3500 -25 
L 4475 -25 
Q 5225 -25 5700 25 
L 5700 -500 
Q 5250 -425 4525 -425 
L 1775 -425 
Q 1025 -425 650 -450 
L 650 0 
Q 1025 -25 1775 -25 
L 3000 -25 
L 3000 1100 
L 2300 1100 
Q 1450 1100 1175 1075 
L 1175 1525 
Q 1450 1500 2275 1500 
L 3000 1500 
L 3000 2500 
L 2500 2500 
Q 1725 2500 1500 2475 
L 1500 2875 
Q 1275 2700 650 2350 
Q 500 2650 300 2875 
Q 900 3025 1700 3625 
Q 2500 4225 2975 5200 
Q 3275 5075 3600 4950 
L 3475 4825 
z
M 1650 2950 
Q 1950 2925 2525 2925 
L 4025 2925 
Q 4525 2925 4800 2950 
Q 3725 3500 3200 4550 
Q 2525 3525 1650 2950 
z
" transform="scale(0.015625)"/>
      <path id="SimHei-14aa" d="M 350 2925 
Q 900 3450 1375 4200 
Q 1850 4950 1900 5275 
Q 2275 5125 2600 5050 
Q 2375 4825 2100 4325 
L 4625 4325 
Q 5175 4325 5750 4350 
L 5750 3925 
Q 5225 3950 4625 3950 
L 3800 3950 
L 3800 2925 
Q 4750 2925 5475 2950 
L 5475 2525 
Q 4725 2550 3800 2550 
L 3800 1375 
L 5075 1375 
Q 5625 1375 6100 1400 
L 6100 975 
Q 5650 1000 5075 1000 
L 3800 1000 
L 3800 425 
Q 3800 -150 3825 -625 
L 3275 -625 
Q 3300 -150 3300 375 
L 3300 1000 
L 1600 1000 
Q 900 1000 275 975 
L 275 1400 
Q 875 1375 1450 1375 
Q 1450 2350 1425 2925 
L 3300 2925 
L 3300 3950 
L 1875 3950 
Q 1350 3150 925 2650 
Q 650 2875 350 2925 
z
M 3300 1375 
L 3300 2550 
L 1925 2550 
L 1925 1375 
L 3300 1375 
z
" transform="scale(0.015625)"/>
      <path id="SimHei-1671" d="M 4550 4850 
Q 4375 4650 4025 3900 
L 5100 3900 
Q 5075 3425 5075 2950 
Q 5075 2500 5100 2025 
L 1175 2025 
Q 1200 2550 1200 3000 
Q 1200 3475 1175 3900 
L 2175 3900 
Q 1900 4350 1525 4750 
Q 1700 4850 1875 5050 
Q 2350 4550 2575 4200 
Q 2400 4075 2250 3900 
L 3550 3900 
Q 3875 4700 3950 5100 
Q 4300 4925 4550 4850 
z
M 4600 2450 
L 4600 3525 
L 1650 3525 
L 1650 2450 
L 4600 2450 
z
M 2275 1450 
Q 2250 1050 2250 675 
Q 2250 300 2262 112 
Q 2275 -75 2675 -75 
L 4000 -75 
Q 4325 -75 4400 550 
Q 4650 400 4925 325 
Q 4775 -200 4562 -337 
Q 4350 -475 4000 -450 
L 2325 -450 
Q 1850 -450 1825 -175 
Q 1800 100 1800 525 
Q 1800 975 1775 1450 
L 2275 1450 
z
M 1350 1325 
Q 1050 300 825 -250 
Q 625 -150 375 -50 
Q 675 525 900 1500 
Q 1100 1425 1350 1325 
z
M 4950 1575 
Q 5700 825 6000 450 
Q 5825 275 5625 100 
Q 5375 450 4600 1275 
Q 4750 1375 4950 1575 
z
M 3350 575 
Q 2975 1175 2675 1500 
Q 2825 1650 3000 1800 
Q 3225 1575 3750 875 
Q 3525 775 3350 575 
z
" transform="scale(0.015625)"/>
      <path id="SimHei-1d" d="M 1825 2425 
L 1250 2425 
L 1250 2975 
L 1825 2975 
L 1825 2425 
z
M 1825 125 
L 1250 125 
L 1250 675 
L 1825 675 
L 1825 125 
z
" transform="scale(0.015625)"/>
     </defs>
     <use xlink:href="#SimHei-79e"/>
     <use xlink:href="#SimHei-14aa" transform="translate(100 0)"/>
     <use xlink:href="#SimHei-1671" transform="translate(200 0)"/>
     <use xlink:href="#SimHei-4239" transform="translate(300 0)"/>
     <use xlink:href="#SimHei-1baa" transform="translate(400 0)"/>
     <use xlink:href="#SimHei-4363" transform="translate(500 0)"/>
     <use xlink:href="#SimHei-2b6b" transform="translate(600 0)"/>
     <use xlink:href="#SimHei-4805" transform="translate(700 0)"/>
     <use xlink:href="#SimHei-1d" transform="translate(800 0)"/>
     <use xlink:href="#SimHei-3" transform="translate(850 0)"/>
     <use xlink:href="#SimHei-14" transform="translate(900 0)"/>
     <use xlink:href="#SimHei-16" transform="translate(950 0)"/>
     <use xlink:href="#SimHei-11" transform="translate(1000 0)"/>
     <use xlink:href="#SimHei-1c" transform="translate(1050 0)"/>
     <use xlink:href="#SimHei-1c" transform="translate(1100 0)"/>
     <use xlink:href="#SimHei-3" transform="translate(1150 0)"/>
     <use xlink:href="#SimHei-43d" transform="translate(1200 0)"/>
     <use xlink:href="#SimHei-4e" transform="translate(1300 0)"/>
     <use xlink:href="#SimHei-3a" transform="translate(1350 0)"/>
     <use xlink:href="#SimHei-4b" transform="translate(1400 0)"/>
    </g>
   </g>
   <g id="patch_16">
    <path d="M 141.720272 214.904338 
Q 141.720272 246.289966 141.720272 276.55756 
" style="fill: none; stroke: #c87a6e; stroke-linecap: round"/>
    <path d="M 143.320272 273.35756 
L 141.720272 276.55756 
L 140.120272 273.35756 
" style="fill: none; stroke: #c87a6e; stroke-linecap: round"/>
   </g>
   <g id="text_32">
    <!-- 预测误差大 -->
    <g style="fill: #c87a6e" transform="translate(121.720272 209.777986) scale(0.08 -0.08)">
     <defs>
      <path id="SimHei-4eba" d="M 5200 4800 
Q 5575 4800 5950 4825 
L 5950 4400 
Q 5575 4425 5200 4425 
L 4500 4425 
Q 4425 4050 4350 3600 
L 5725 3600 
Q 5700 3225 5700 2800 
L 5700 1725 
Q 5700 1300 5725 850 
L 5250 850 
L 5250 3225 
L 3550 3225 
L 3550 800 
L 3075 800 
Q 3100 1375 3100 1725 
L 3100 2775 
Q 3100 3175 3075 3600 
L 3900 3600 
Q 4000 4150 4000 4425 
L 3725 4425 
Q 3300 4425 2850 4400 
L 2850 4825 
Q 3325 4800 3725 4800 
L 5200 4800 
z
M 2600 1775 
Q 2350 1825 2150 1825 
Q 2250 2250 2300 2450 
L 1750 2450 
L 1750 125 
Q 1725 -300 1425 -400 
Q 1125 -500 750 -500 
Q 700 -225 575 25 
Q 1125 -25 1212 37 
Q 1300 100 1300 350 
L 1300 2450 
L 1025 2450 
Q 700 2450 350 2425 
L 350 2850 
Q 700 2825 1000 2825 
L 2850 2825 
Q 2725 2325 2600 1775 
z
M 4725 2875 
Q 4625 2575 4600 2100 
Q 4575 1625 4462 1037 
Q 4350 450 3962 62 
Q 3575 -325 2925 -675 
Q 2700 -500 2475 -350 
Q 3075 -125 3437 200 
Q 3800 525 3950 937 
Q 4100 1350 4137 1850 
Q 4175 2350 4175 2925 
L 4725 2875 
z
M 1625 2900 
Q 1275 3275 800 3650 
Q 925 3775 1075 3950 
Q 1250 3825 1425 3675 
Q 1750 4150 1950 4375 
L 1400 4375 
Q 900 4375 450 4350 
L 450 4775 
Q 900 4750 1375 4750 
L 2575 4750 
L 2575 4375 
Q 2200 4100 1725 3400 
L 1950 3200 
Q 1750 3025 1625 2900 
z
M 4775 725 
Q 5725 0 6075 -325 
Q 5850 -500 5725 -650 
Q 5400 -325 5137 -87 
Q 4875 150 4525 350 
Q 4650 525 4775 725 
z
" transform="scale(0.015625)"/>
      <path id="SimHei-2381" d="M 4025 4725 
Q 4000 4475 4000 4000 
L 4000 2225 
Q 4000 1775 4025 1350 
L 3550 1350 
L 3550 4325 
L 2350 4325 
L 2350 1325 
L 1900 1325 
Q 1925 1775 1925 2225 
L 1925 4000 
Q 1925 4200 1900 4725 
L 4025 4725 
z
M 5900 5075 
Q 5875 4800 5875 4375 
L 5875 0 
Q 5875 -325 5650 -425 
Q 5425 -525 4975 -600 
Q 4925 -325 4775 -50 
Q 5125 -50 5262 -25 
Q 5400 0 5400 250 
L 5400 4375 
Q 5400 4775 5375 5075 
L 5900 5075 
z
M 3275 3725 
Q 3225 3400 3200 2325 
Q 3175 1250 2837 550 
Q 2500 -150 2075 -600 
Q 1850 -400 1600 -325 
Q 2200 250 2475 962 
Q 2750 1675 2762 2475 
Q 2775 3275 2725 3800 
Q 3000 3750 3275 3725 
z
M 4950 4275 
Q 4925 4000 4925 3575 
L 4925 1825 
Q 4925 1300 4950 850 
L 4450 850 
Q 4475 1150 4475 1825 
L 4475 3575 
Q 4475 4000 4450 4275 
L 4950 4275 
z
M 1700 1675 
Q 1375 1075 1112 487 
Q 850 -100 725 -400 
Q 500 -200 200 -25 
Q 475 300 762 850 
Q 1050 1400 1250 2000 
Q 1475 1825 1700 1675 
z
M 3400 1050 
Q 3800 650 4300 -125 
Q 4100 -225 3875 -450 
Q 3475 275 3025 750 
Q 3225 875 3400 1050 
z
M 600 3525 
Q 1125 3125 1500 2775 
Q 1300 2575 1150 2375 
Q 825 2775 300 3150 
Q 450 3300 600 3525 
z
M 1350 4000 
Q 950 4375 475 4675 
Q 625 4850 775 5050 
Q 1300 4700 1675 4375 
Q 1500 4250 1350 4000 
z
" transform="scale(0.015625)"/>
      <path id="SimHei-4225" d="M 4625 2750 
Q 5325 2750 5800 2775 
L 5800 2350 
Q 5300 2375 4625 2375 
L 4150 2375 
Q 4150 2125 4100 1650 
L 5025 1650 
Q 5575 1650 6100 1675 
L 6100 1225 
Q 5575 1250 5025 1250 
L 4250 1250 
Q 4575 600 5050 287 
Q 5525 -25 6125 -125 
Q 5900 -350 5775 -625 
Q 4875 -275 4450 175 
Q 4025 625 3900 1000 
Q 3600 325 3125 -62 
Q 2650 -450 2025 -675 
Q 1975 -450 1725 -200 
Q 2475 -75 2937 437 
Q 3400 950 3475 1250 
L 2975 1250 
Q 2400 1250 2025 1225 
L 2025 1675 
Q 2475 1650 2900 1650 
L 3600 1650 
Q 3650 2025 3650 2375 
L 3325 2375 
Q 2675 2375 2225 2350 
L 2225 2775 
Q 2700 2750 3150 2750 
L 4625 2750 
z
M 5425 4875 
Q 5400 4550 5400 4075 
Q 5400 3600 5425 3325 
L 2450 3325 
Q 2475 3575 2475 4050 
Q 2475 4525 2450 4875 
L 5425 4875 
z
M 1550 3325 
Q 1525 3000 1525 2500 
L 1525 675 
L 1900 1100 
Q 2025 875 2225 700 
Q 1675 300 1250 -325 
Q 1100 -100 825 50 
Q 1025 250 1050 500 
L 1050 2900 
Q 700 2900 325 2875 
L 325 3350 
Q 550 3325 750 3325 
L 1550 3325 
z
M 4975 3700 
L 4975 4475 
L 2900 4475 
L 2900 3700 
L 4975 3700 
z
M 975 5125 
Q 1150 5000 1900 4275 
Q 1725 4125 1550 3925 
Q 1150 4400 675 4775 
Q 875 4975 975 5125 
z
" transform="scale(0.015625)"/>
      <path id="SimHei-1424" d="M 4725 4975 
Q 4500 4725 4250 4275 
L 4850 4275 
Q 5450 4275 5825 4300 
L 5825 3850 
Q 5425 3875 4850 3875 
L 3275 3875 
Q 3225 3600 3150 3275 
L 4525 3275 
Q 5075 3275 5525 3300 
L 5525 2850 
Q 5075 2875 4500 2875 
L 3050 2875 
Q 2975 2650 2850 2325 
L 5125 2325 
Q 5675 2325 6025 2350 
L 6025 1900 
Q 5700 1925 5150 1925 
L 2650 1925 
Q 2425 1550 2250 1300 
Q 2650 1275 3100 1275 
L 4525 1275 
Q 4975 1275 5350 1300 
L 5350 850 
Q 4975 875 4575 875 
L 3925 875 
L 3925 -50 
L 5000 -50 
Q 5200 -50 5900 -25 
L 5900 -500 
Q 5275 -475 5025 -475 
L 2100 -475 
Q 1700 -475 1400 -500 
L 1400 -25 
Q 1775 -50 2125 -50 
L 3425 -50 
L 3425 875 
L 3100 875 
Q 2625 875 2175 850 
L 2175 1200 
Q 1925 875 1487 475 
Q 1050 75 625 -250 
Q 425 -25 200 150 
Q 750 475 1262 925 
Q 1775 1375 2100 1925 
L 1325 1925 
Q 750 1925 375 1900 
L 375 2350 
Q 750 2325 1350 2325 
L 2325 2325 
Q 2450 2575 2550 2875 
L 1725 2875 
Q 1375 2875 1000 2850 
L 1000 3300 
Q 1500 3275 1700 3275 
L 2650 3275 
Q 2725 3575 2775 3875 
L 1500 3875 
Q 1100 3875 650 3850 
L 650 4300 
Q 1025 4275 1425 4275 
L 2275 4275 
Q 2075 4675 1850 4950 
Q 2025 5050 2250 5225 
Q 2450 4975 2725 4550 
Q 2525 4450 2325 4275 
L 3750 4275 
Q 4000 4700 4150 5250 
Q 4400 5100 4725 4975 
z
" transform="scale(0.015625)"/>
      <path id="SimHei-f5d" d="M 2900 3400 
Q 2925 4275 2912 4575 
Q 2900 4875 2875 5150 
Q 3175 5100 3550 5075 
Q 3475 4825 3437 4350 
Q 3400 3875 3400 3400 
L 4675 3400 
Q 5350 3400 5925 3450 
L 5925 2900 
Q 5425 2925 4900 2925 
L 3425 2925 
Q 3525 2500 3775 2062 
Q 4025 1625 4287 1287 
Q 4550 950 5012 575 
Q 5475 200 6025 -50 
Q 5825 -200 5625 -550 
Q 5175 -300 4737 75 
Q 4300 450 3862 1062 
Q 3425 1675 3200 2200 
Q 3000 1650 2775 1287 
Q 2550 925 2287 625 
Q 2025 325 1612 25 
Q 1200 -275 675 -575 
Q 475 -275 225 -50 
Q 750 125 1262 450 
Q 1775 775 2100 1187 
Q 2425 1600 2625 2050 
Q 2825 2500 2875 2925 
L 1500 2925 
Q 900 2925 550 2900 
L 550 3450 
Q 900 3425 1500 3400 
L 2900 3400 
z
" transform="scale(0.015625)"/>
     </defs>
     <use xlink:href="#SimHei-4eba"/>
     <use xlink:href="#SimHei-2381" transform="translate(100 0)"/>
     <use xlink:href="#SimHei-4225" transform="translate(200 0)"/>
     <use xlink:href="#SimHei-1424" transform="translate(300 0)"/>
     <use xlink:href="#SimHei-f5d" transform="translate(400 0)"/>
    </g>
   </g>
   <g id="patch_17">
    <path d="M 198.760204 19.201352 
Q 198.760204 50.58698 198.760204 80.854575 
" style="fill: none; stroke: #c87a6e; stroke-linecap: round"/>
    <path d="M 200.360204 77.654575 
L 198.760204 80.854575 
L 197.160204 77.654575 
" style="fill: none; stroke: #c87a6e; stroke-linecap: round"/>
   </g>
   <g id="text_33">
    <!-- 预测误差大 -->
    <g style="fill: #c87a6e" transform="translate(178.760204 14.075) scale(0.08 -0.08)">
     <use xlink:href="#SimHei-4eba"/>
     <use xlink:href="#SimHei-2381" transform="translate(100 0)"/>
     <use xlink:href="#SimHei-4225" transform="translate(200 0)"/>
     <use xlink:href="#SimHei-1424" transform="translate(300 0)"/>
     <use xlink:href="#SimHei-f5d" transform="translate(400 0)"/>
    </g>
   </g>
   <g id="patch_18">
    <path d="M 483.959864 198.595756 
Q 483.959864 229.981384 483.959864 260.248978 
" style="fill: none; stroke: #c87a6e; stroke-linecap: round"/>
    <path d="M 485.559864 257.048978 
L 483.959864 260.248978 
L 482.359864 257.048978 
" style="fill: none; stroke: #c87a6e; stroke-linecap: round"/>
   </g>
   <g id="text_34">
    <!-- 预测误差大 -->
    <g style="fill: #c87a6e" transform="translate(463.959864 193.469404) scale(0.08 -0.08)">
     <use xlink:href="#SimHei-4eba"/>
     <use xlink:href="#SimHei-2381" transform="translate(100 0)"/>
     <use xlink:href="#SimHei-4225" transform="translate(200 0)"/>
     <use xlink:href="#SimHei-1424" transform="translate(300 0)"/>
     <use xlink:href="#SimHei-f5d" transform="translate(400 0)"/>
    </g>
   </g>
  </g>
 </g>
 <defs>
  <clipPath id="p0bb15c1c2d">
   <rect x="34.2" y="8.716466" width="671.36" height="376.262288"/>
  </clipPath>
 </defs>
</svg>
